<svg xmlns="http://www.w3.org/2000/svg" xmlns:xlink="http://www.w3.org/1999/xlink" width="200" zoomAndPan="magnify" viewBox="0 0 150 149.999998" height="200" preserveAspectRatio="xMidYMid meet" version="1.0"><defs><clipPath id="ee549e0fbb"><path d="M 3.136719 3.136719 L 146.863281 3.136719 L 146.863281 146.863281 L 3.136719 146.863281 Z M 3.136719 3.136719 " clip-rule="nonzero"/></clipPath><clipPath id="5ec3140d90"><path d="M 75 3.136719 C 35.308594 3.136719 3.136719 35.308594 3.136719 75 C 3.136719 114.691406 35.308594 146.863281 75 146.863281 C 114.691406 146.863281 146.863281 114.691406 146.863281 75 C 146.863281 35.308594 114.691406 3.136719 75 3.136719 Z M 75 3.136719 " clip-rule="nonzero"/></clipPath><clipPath id="ae5a936ca0"><path d="M 0.136719 0.136719 L 143.863281 0.136719 L 143.863281 143.863281 L 0.136719 143.863281 Z M 0.136719 0.136719 " clip-rule="nonzero"/></clipPath><clipPath id="234f33844f"><path d="M 72 0.136719 C 32.308594 0.136719 0.136719 32.308594 0.136719 72 C 0.136719 111.691406 32.308594 143.863281 72 143.863281 C 111.691406 143.863281 143.863281 111.691406 143.863281 72 C 143.863281 32.308594 111.691406 0.136719 72 0.136719 Z M 72 0.136719 " clip-rule="nonzero"/></clipPath><clipPath id="ccd2fef740"><rect x="0" width="144" y="0" height="144"/></clipPath><clipPath id="d7d5a511f3"><path d="M 15 35 L 88.5 35 L 88.5 150 L 15 150 Z M 15 35 " clip-rule="nonzero"/></clipPath><clipPath id="641b52fb30"><path d="M 63.242188 34.957031 L 136.742188 34.957031 L 136.742188 150 L 63.242188 150 Z M 63.242188 34.957031 " clip-rule="nonzero"/></clipPath><clipPath id="ad7c6af929"><path d="M 0.242188 1 L 73.695312 1 L 73.695312 116 L 0.242188 116 Z M 0.242188 1 " clip-rule="nonzero"/></clipPath><clipPath id="2f0bfd7a3f"><rect x="0" width="74" y="0" height="116"/></clipPath></defs><g clip-path="url(#ee549e0fbb)"><g clip-path="url(#5ec3140d90)"><g transform="matrix(1, 0, 0, 1, 3, 3)"><g clip-path="url(#ccd2fef740)"><g clip-path="url(#ae5a936ca0)"><g clip-path="url(#234f33844f)"><path fill="#1a252f" d="M 0.136719 0.136719 L 143.863281 0.136719 L 143.863281 143.863281 L 0.136719 143.863281 Z M 0.136719 0.136719 " fill-opacity="1" fill-rule="nonzero"/></g></g></g></g></g></g><g clip-path="url(#d7d5a511f3)"><path fill="#2ecc71" d="M 28.507812 54.351562 L 28.507812 98.53125 C 28.507812 99.058594 28.40625 99.5625 28.203125 100.050781 C 28 100.539062 27.714844 100.96875 27.339844 101.339844 C 26.96875 101.714844 26.539062 102 26.050781 102.203125 C 25.566406 102.40625 25.058594 102.507812 24.53125 102.507812 L 17.429688 102.507812 C 16.902344 102.507812 16.394531 102.40625 15.90625 102.203125 C 15.421875 102 14.988281 101.714844 14.617188 101.339844 C 14.246094 100.96875 13.957031 100.539062 13.753906 100.050781 C 13.550781 99.5625 13.449219 99.058594 13.449219 98.53125 L 13.449219 54.351562 C 13.449219 53.824219 13.554688 53.320312 13.753906 52.832031 C 13.957031 52.34375 14.246094 51.914062 14.617188 51.542969 C 14.992188 51.167969 15.421875 50.882812 15.90625 50.679688 C 16.394531 50.476562 16.902344 50.375 17.429688 50.375 L 24.53125 50.375 C 25.058594 50.375 25.566406 50.476562 26.050781 50.679688 C 26.539062 50.882812 26.96875 51.167969 27.339844 51.542969 C 27.714844 51.914062 28 52.34375 28.203125 52.832031 C 28.40625 53.320312 28.507812 53.824219 28.507812 54.351562 Z M 48.871094 35.105469 L 41.769531 35.105469 C 41.242188 35.105469 40.734375 35.207031 40.246094 35.410156 C 39.761719 35.613281 39.332031 35.902344 38.957031 36.273438 C 38.585938 36.644531 38.296875 37.074219 38.09375 37.5625 C 37.894531 38.050781 37.789062 38.558594 37.789062 39.085938 L 37.789062 113.796875 C 37.789062 114.324219 37.890625 114.832031 38.09375 115.320312 C 38.296875 115.804688 38.585938 116.234375 38.957031 116.609375 C 39.328125 116.980469 39.761719 117.269531 40.246094 117.472656 C 40.734375 117.675781 41.242188 117.777344 41.769531 117.777344 L 48.871094 117.777344 C 49.398438 117.777344 49.90625 117.675781 50.390625 117.472656 C 50.878906 117.269531 51.308594 116.980469 51.679688 116.609375 C 52.054688 116.234375 52.339844 115.804688 52.542969 115.320312 C 52.746094 114.832031 52.847656 114.324219 52.847656 113.796875 L 52.847656 39.085938 C 52.847656 38.558594 52.746094 38.050781 52.542969 37.5625 C 52.339844 37.074219 52.054688 36.644531 51.679688 36.273438 C 51.308594 35.902344 50.878906 35.613281 50.390625 35.410156 C 49.90625 35.207031 49.398438 35.105469 48.871094 35.105469 Z M 242.648438 65.832031 C 241.839844 65.832031 241.039062 65.910156 240.246094 66.070312 C 239.457031 66.226562 238.6875 66.460938 237.941406 66.769531 C 237.195312 67.078125 236.488281 67.457031 235.816406 67.90625 C 235.144531 68.355469 234.523438 68.863281 233.953125 69.433594 C 233.378906 70.003906 232.871094 70.625 232.421875 71.296875 C 231.972656 71.96875 231.59375 72.679688 231.285156 73.425781 C 230.976562 74.171875 230.742188 74.9375 230.585938 75.730469 C 230.429688 76.523438 230.351562 77.324219 230.351562 78.128906 L 230.351562 135.59375 L 196.554688 164.898438 L 148.59375 164.898438 L 114.796875 135.59375 L 114.796875 78.128906 C 114.800781 77.320312 114.726562 76.515625 114.574219 75.71875 C 114.421875 74.921875 114.191406 74.148438 113.886719 73.398438 C 113.578125 72.644531 113.203125 71.929688 112.753906 71.253906 C 112.308594 70.578125 111.796875 69.953125 111.226562 69.375 C 110.65625 68.800781 110.03125 68.285156 109.359375 67.835938 C 108.6875 67.382812 107.976562 67 107.226562 66.6875 C 106.476562 66.375 105.703125 66.140625 104.910156 65.980469 C 104.113281 65.824219 103.308594 65.742188 102.5 65.742188 C 101.6875 65.742188 100.882812 65.824219 100.089844 65.980469 C 99.292969 66.140625 98.519531 66.375 97.773438 66.6875 C 97.023438 67 96.3125 67.382812 95.640625 67.835938 C 94.964844 68.285156 94.34375 68.800781 93.773438 69.375 C 93.199219 69.953125 92.691406 70.578125 92.242188 71.253906 C 91.796875 71.929688 91.417969 72.644531 91.113281 73.398438 C 90.804688 74.148438 90.574219 74.921875 90.421875 75.71875 C 90.269531 76.515625 90.195312 77.320312 90.203125 78.128906 L 90.203125 141.15625 C 90.199219 142.121094 90.3125 143.070312 90.535156 144.007812 C 90.757812 144.941406 91.085938 145.839844 91.519531 146.699219 C 91.953125 147.558594 92.480469 148.355469 93.101562 149.089844 C 93.722656 149.824219 94.417969 150.480469 95.195312 151.050781 L 138.980469 189.015625 L 138.980469 254.242188 L 118.984375 328.871094 C 118.839844 329.402344 118.722656 329.941406 118.632812 330.484375 C 118.542969 331.027344 118.480469 331.570312 118.445312 332.121094 C 118.410156 332.667969 118.402344 333.21875 118.417969 333.769531 C 118.4375 334.320312 118.480469 334.867188 118.554688 335.410156 C 118.625 335.957031 118.722656 336.496094 118.847656 337.035156 C 118.972656 337.570312 119.125 338.097656 119.300781 338.617188 C 119.476562 339.140625 119.679688 339.648438 119.90625 340.152344 C 120.132812 340.652344 120.386719 341.140625 120.660156 341.617188 C 120.933594 342.09375 121.234375 342.554688 121.554688 343.003906 C 121.875 343.449219 122.214844 343.878906 122.578125 344.292969 C 122.941406 344.707031 123.324219 345.101562 123.726562 345.476562 C 124.125 345.855469 124.546875 346.210938 124.980469 346.542969 C 125.417969 346.878906 125.871094 347.191406 126.335938 347.484375 C 126.804688 347.773438 127.285156 348.039062 127.777344 348.285156 C 128.269531 348.527344 128.777344 348.746094 129.289062 348.9375 C 129.804688 349.132812 130.328125 349.300781 130.859375 349.445312 C 131.390625 349.585938 131.929688 349.703125 132.472656 349.792969 C 133.011719 349.882812 133.558594 349.945312 134.109375 349.980469 C 134.65625 350.015625 135.207031 350.023438 135.757812 350.007812 C 136.304688 349.988281 136.855469 349.945312 137.398438 349.871094 C 137.945312 349.800781 138.484375 349.703125 139.019531 349.578125 C 139.558594 349.453125 140.085938 349.300781 140.605469 349.125 C 141.128906 348.949219 141.636719 348.746094 142.140625 348.519531 C 142.640625 348.292969 143.128906 348.039062 143.605469 347.765625 C 144.082031 347.492188 144.542969 347.191406 144.992188 346.871094 C 145.4375 346.550781 145.867188 346.210938 146.28125 345.847656 C 146.695312 345.484375 147.089844 345.101562 147.464844 344.703125 C 147.84375 344.300781 148.199219 343.878906 148.53125 343.445312 C 148.867188 343.007812 149.179688 342.554688 149.472656 342.089844 C 149.761719 341.621094 150.027344 341.140625 150.273438 340.648438 C 150.515625 340.15625 150.734375 339.652344 150.925781 339.136719 C 151.121094 338.621094 151.289062 338.097656 151.429688 337.566406 L 172.574219 258.664062 L 193.714844 337.566406 C 193.855469 338.097656 194.023438 338.621094 194.21875 339.132812 C 194.414062 339.648438 194.632812 340.152344 194.875 340.648438 C 195.117188 341.140625 195.382812 341.621094 195.675781 342.085938 C 195.964844 342.554688 196.277344 343.007812 196.613281 343.441406 C 196.949219 343.878906 197.304688 344.296875 197.679688 344.699219 C 198.054688 345.101562 198.449219 345.484375 198.863281 345.847656 C 199.277344 346.210938 199.707031 346.550781 200.15625 346.871094 C 200.601562 347.191406 201.0625 347.488281 201.539062 347.765625 C 202.015625 348.039062 202.507812 348.289062 203.007812 348.515625 C 203.507812 348.746094 204.019531 348.945312 204.539062 349.125 C 205.0625 349.300781 205.589844 349.449219 206.125 349.574219 C 206.660156 349.699219 207.203125 349.800781 207.746094 349.871094 C 208.292969 349.941406 208.839844 349.988281 209.390625 350.003906 C 209.9375 350.023438 210.488281 350.015625 211.039062 349.980469 C 211.585938 349.941406 212.132812 349.878906 212.675781 349.789062 C 213.21875 349.699219 213.753906 349.585938 214.285156 349.441406 C 214.816406 349.300781 215.339844 349.132812 215.855469 348.9375 C 216.371094 348.746094 216.875 348.527344 217.367188 348.28125 C 217.863281 348.039062 218.34375 347.773438 218.808594 347.480469 C 219.277344 347.191406 219.726562 346.878906 220.164062 346.542969 C 220.601562 346.207031 221.019531 345.851562 221.421875 345.476562 C 221.824219 345.101562 222.203125 344.707031 222.566406 344.292969 C 222.929688 343.878906 223.273438 343.449219 223.59375 343 C 223.914062 342.554688 224.210938 342.09375 224.484375 341.617188 C 224.761719 341.140625 225.011719 340.652344 225.238281 340.148438 C 225.464844 339.648438 225.667969 339.136719 225.84375 338.617188 C 226.019531 338.097656 226.171875 337.566406 226.296875 337.03125 C 226.421875 336.496094 226.519531 335.957031 226.59375 335.410156 C 226.664062 334.863281 226.710938 334.316406 226.726562 333.765625 C 226.746094 333.21875 226.734375 332.667969 226.699219 332.117188 C 226.664062 331.570312 226.601562 331.023438 226.511719 330.480469 C 226.421875 329.9375 226.304688 329.402344 226.164062 328.871094 L 206.167969 254.242188 L 206.167969 189.015625 L 249.953125 151.050781 C 250.726562 150.480469 251.425781 149.824219 252.046875 149.089844 C 252.667969 148.355469 253.195312 147.558594 253.628906 146.699219 C 254.0625 145.839844 254.390625 144.941406 254.613281 144.007812 C 254.835938 143.070312 254.945312 142.121094 254.945312 141.15625 L 254.945312 78.128906 C 254.945312 77.324219 254.867188 76.523438 254.707031 75.730469 C 254.550781 74.9375 254.316406 74.171875 254.007812 73.425781 C 253.699219 72.679688 253.320312 71.96875 252.871094 71.296875 C 252.421875 70.625 251.914062 70.003906 251.34375 69.433594 C 250.773438 68.863281 250.152344 68.355469 249.480469 67.90625 C 248.808594 67.457031 248.097656 67.078125 247.351562 66.769531 C 246.605469 66.460938 245.839844 66.226562 245.046875 66.070312 C 244.253906 65.910156 243.453125 65.832031 242.648438 65.832031 Z M 124.078125 81.21875 L 221.066406 81.21875 L 221.066406 78.128906 C 221.066406 75.925781 221.394531 73.769531 222.054688 71.664062 L 123.089844 71.664062 C 123.75 73.769531 124.082031 75.925781 124.078125 78.128906 Z M 327.71875 50.375 L 320.617188 50.375 C 320.089844 50.375 319.582031 50.476562 319.09375 50.679688 C 318.609375 50.882812 318.179688 51.167969 317.804688 51.542969 C 317.433594 51.914062 317.144531 52.34375 316.941406 52.832031 C 316.742188 53.316406 316.640625 53.824219 316.636719 54.351562 L 316.636719 98.53125 C 316.640625 99.058594 316.742188 99.5625 316.941406 100.050781 C 317.144531 100.539062 317.433594 100.96875 317.804688 101.339844 C 318.179688 101.714844 318.609375 102 319.09375 102.203125 C 319.582031 102.40625 320.089844 102.507812 320.617188 102.507812 L 327.71875 102.507812 C 328.246094 102.507812 328.753906 102.40625 329.238281 102.203125 C 329.726562 102 330.15625 101.714844 330.527344 101.339844 C 330.902344 100.96875 331.1875 100.539062 331.390625 100.050781 C 331.59375 99.5625 331.695312 99.058594 331.695312 98.53125 L 331.695312 54.351562 C 331.695312 53.824219 331.59375 53.320312 331.390625 52.832031 C 331.1875 52.34375 330.902344 51.914062 330.527344 51.542969 C 330.15625 51.167969 329.726562 50.882812 329.238281 50.679688 C 328.753906 50.476562 328.246094 50.375 327.71875 50.375 Z M 146.175781 125.425781 C 146.175781 126.292969 146.21875 127.15625 146.300781 128.015625 C 146.386719 128.875 146.515625 129.730469 146.683594 130.578125 C 146.851562 131.425781 147.0625 132.261719 147.3125 133.089844 C 147.5625 133.917969 147.855469 134.730469 148.183594 135.53125 C 148.515625 136.328125 148.882812 137.109375 149.292969 137.871094 C 149.699219 138.632812 150.144531 139.375 150.625 140.09375 C 151.105469 140.8125 151.617188 141.507812 152.167969 142.175781 C 152.714844 142.84375 153.296875 143.484375 153.90625 144.09375 C 154.519531 144.707031 155.160156 145.285156 155.828125 145.835938 C 156.496094 146.382812 157.1875 146.898438 157.90625 147.378906 C 158.625 147.859375 159.367188 148.300781 160.128906 148.710938 C 160.890625 149.117188 161.671875 149.488281 162.472656 149.816406 C 163.269531 150.148438 164.082031 150.4375 164.910156 150.691406 C 165.738281 150.941406 166.574219 151.152344 167.421875 151.320312 C 168.273438 151.488281 169.125 151.613281 169.984375 151.699219 C 170.847656 151.785156 171.710938 151.828125 172.574219 151.828125 C 173.4375 151.828125 174.300781 151.785156 175.160156 151.699219 C 176.023438 151.613281 176.875 151.488281 177.722656 151.320312 C 178.570312 151.152344 179.410156 150.941406 180.238281 150.691406 C 181.0625 150.4375 181.878906 150.148438 182.675781 149.816406 C 183.476562 149.488281 184.253906 149.117188 185.019531 148.710938 C 185.78125 148.300781 186.519531 147.859375 187.238281 147.378906 C 187.957031 146.898438 188.652344 146.382812 189.320312 145.835938 C 189.988281 145.285156 190.628906 144.707031 191.242188 144.09375 C 191.851562 143.484375 192.429688 142.84375 192.980469 142.175781 C 193.527344 141.507812 194.042969 140.8125 194.523438 140.09375 C 195.003906 139.375 195.449219 138.636719 195.855469 137.871094 C 196.261719 137.109375 196.632812 136.328125 196.960938 135.53125 C 197.292969 134.730469 197.585938 133.917969 197.835938 133.089844 C 198.085938 132.265625 198.296875 131.425781 198.464844 130.578125 C 198.632812 129.730469 198.761719 128.875 198.84375 128.015625 C 198.929688 127.15625 198.972656 126.292969 198.972656 125.429688 C 198.972656 124.5625 198.929688 123.699219 198.84375 122.839844 C 198.761719 121.980469 198.632812 121.125 198.464844 120.277344 C 198.296875 119.429688 198.085938 118.59375 197.835938 117.765625 C 197.585938 116.9375 197.292969 116.125 196.960938 115.324219 C 196.632812 114.527344 196.261719 113.746094 195.855469 112.984375 C 195.449219 112.222656 195.003906 111.480469 194.523438 110.761719 C 194.042969 110.042969 193.527344 109.347656 192.980469 108.679688 C 192.429688 108.011719 191.851562 107.371094 191.238281 106.761719 C 190.628906 106.148438 189.988281 105.570312 189.320312 105.023438 C 188.652344 104.472656 187.957031 103.957031 187.238281 103.476562 C 186.519531 103 185.78125 102.554688 185.015625 102.148438 C 184.253906 101.738281 183.472656 101.371094 182.675781 101.039062 C 181.875 100.707031 181.0625 100.417969 180.234375 100.167969 C 179.410156 99.914062 178.570312 99.707031 177.722656 99.535156 C 176.875 99.367188 176.019531 99.242188 175.160156 99.15625 C 174.300781 99.070312 173.4375 99.03125 172.574219 99.03125 C 171.707031 99.03125 170.847656 99.070312 169.984375 99.15625 C 169.125 99.242188 168.269531 99.367188 167.421875 99.535156 C 166.574219 99.707031 165.738281 99.914062 164.910156 100.167969 C 164.082031 100.417969 163.269531 100.707031 162.472656 101.039062 C 161.671875 101.371094 160.890625 101.738281 160.128906 102.148438 C 159.367188 102.554688 158.625 103 157.90625 103.480469 C 157.1875 103.960938 156.496094 104.472656 155.828125 105.023438 C 155.15625 105.570312 154.519531 106.148438 153.90625 106.761719 C 153.296875 107.371094 152.714844 108.011719 152.167969 108.679688 C 151.617188 109.347656 151.105469 110.042969 150.625 110.761719 C 150.144531 111.480469 149.699219 112.222656 149.292969 112.984375 C 148.882812 113.746094 148.515625 114.527344 148.183594 115.324219 C 147.855469 116.125 147.5625 116.9375 147.3125 117.765625 C 147.0625 118.59375 146.851562 119.429688 146.683594 120.277344 C 146.515625 121.125 146.386719 121.980469 146.300781 122.839844 C 146.21875 123.699219 146.175781 124.5625 146.175781 125.429688 Z M 264.226562 78.128906 L 264.226562 81.21875 L 283.015625 81.21875 L 283.015625 71.664062 L 263.238281 71.664062 C 263.898438 73.769531 264.226562 75.925781 264.226562 78.128906 Z M 303.378906 35.105469 L 296.273438 35.105469 C 295.75 35.105469 295.242188 35.207031 294.753906 35.410156 C 294.265625 35.613281 293.835938 35.902344 293.464844 36.273438 C 293.09375 36.644531 292.804688 37.074219 292.601562 37.5625 C 292.398438 38.050781 292.296875 38.558594 292.296875 39.085938 L 292.296875 113.796875 C 292.296875 114.324219 292.398438 114.832031 292.601562 115.320312 C 292.804688 115.804688 293.09375 116.234375 293.464844 116.609375 C 293.835938 116.980469 294.265625 117.269531 294.753906 117.472656 C 295.242188 117.671875 295.75 117.773438 296.273438 117.777344 L 303.378906 117.777344 C 303.90625 117.777344 304.414062 117.675781 304.898438 117.472656 C 305.386719 117.269531 305.816406 116.980469 306.1875 116.609375 C 306.5625 116.234375 306.847656 115.804688 307.050781 115.320312 C 307.253906 114.832031 307.355469 114.324219 307.355469 113.796875 L 307.355469 39.085938 C 307.355469 38.558594 307.253906 38.050781 307.050781 37.5625 C 306.847656 37.074219 306.5625 36.644531 306.1875 36.273438 C 305.816406 35.902344 305.386719 35.613281 304.898438 35.410156 C 304.414062 35.207031 303.90625 35.105469 303.378906 35.105469 Z M 62.128906 81.21875 L 80.917969 81.21875 L 80.917969 78.128906 C 80.917969 75.925781 81.246094 73.769531 81.90625 71.664062 L 62.128906 71.664062 Z M 62.128906 81.21875 " fill-opacity="1" fill-rule="nonzero"/></g><g clip-path="url(#641b52fb30)"><g transform="matrix(1, 0, 0, 1, 63, 34)"><g clip-path="url(#2f0bfd7a3f)"><g clip-path="url(#ad7c6af929)"><path fill="#2ecc71" d="M 60.1875 20.351562 L 60.1875 64.53125 C 60.1875 65.058594 60.289062 65.5625 60.492188 66.050781 C 60.695312 66.539062 60.980469 66.96875 61.355469 67.339844 C 61.726562 67.714844 62.15625 68 62.644531 68.203125 C 63.128906 68.40625 63.636719 68.507812 64.164062 68.507812 L 71.265625 68.507812 C 71.792969 68.507812 72.300781 68.40625 72.789062 68.203125 C 73.273438 68 73.707031 67.714844 74.078125 67.339844 C 74.449219 66.96875 74.738281 66.539062 74.941406 66.050781 C 75.144531 65.5625 75.246094 65.058594 75.246094 64.53125 L 75.246094 20.351562 C 75.246094 19.824219 75.144531 19.320312 74.941406 18.832031 C 74.738281 18.34375 74.449219 17.914062 74.078125 17.542969 C 73.703125 17.167969 73.273438 16.882812 72.789062 16.679688 C 72.300781 16.476562 71.792969 16.375 71.265625 16.375 L 64.164062 16.375 C 63.636719 16.375 63.128906 16.476562 62.644531 16.679688 C 62.15625 16.882812 61.726562 17.167969 61.355469 17.542969 C 60.980469 17.914062 60.695312 18.34375 60.492188 18.832031 C 60.289062 19.320312 60.1875 19.824219 60.1875 20.351562 Z M 39.824219 1.105469 L 46.925781 1.105469 C 47.453125 1.105469 47.960938 1.207031 48.449219 1.410156 C 48.933594 1.613281 49.363281 1.902344 49.738281 2.273438 C 50.109375 2.644531 50.398438 3.074219 50.601562 3.5625 C 50.804688 4.050781 50.90625 4.558594 50.90625 5.085938 L 50.90625 79.796875 C 50.90625 80.324219 50.804688 80.832031 50.601562 81.320312 C 50.398438 81.804688 50.109375 82.234375 49.738281 82.609375 C 49.367188 82.980469 48.933594 83.269531 48.449219 83.472656 C 47.960938 83.675781 47.453125 83.777344 46.925781 83.777344 L 39.824219 83.777344 C 39.296875 83.777344 38.789062 83.675781 38.304688 83.472656 C 37.816406 83.269531 37.386719 82.980469 37.015625 82.609375 C 36.640625 82.234375 36.355469 81.804688 36.152344 81.320312 C 35.949219 80.832031 35.847656 80.324219 35.847656 79.796875 L 35.847656 5.085938 C 35.847656 4.558594 35.949219 4.050781 36.152344 3.5625 C 36.355469 3.074219 36.640625 2.644531 37.015625 2.273438 C 37.386719 1.902344 37.816406 1.613281 38.304688 1.410156 C 38.789062 1.207031 39.296875 1.105469 39.824219 1.105469 Z M -153.953125 31.832031 C -153.144531 31.832031 -152.34375 31.910156 -151.550781 32.070312 C -150.761719 32.226562 -149.992188 32.460938 -149.246094 32.769531 C -148.5 33.078125 -147.792969 33.457031 -147.121094 33.90625 C -146.449219 34.355469 -145.828125 34.863281 -145.257812 35.433594 C -144.683594 36.003906 -144.175781 36.625 -143.726562 37.296875 C -143.277344 37.96875 -142.898438 38.679688 -142.589844 39.425781 C -142.28125 40.171875 -142.046875 40.9375 -141.890625 41.730469 C -141.734375 42.523438 -141.65625 43.324219 -141.65625 44.128906 L -141.65625 101.59375 L -107.859375 130.898438 L -59.898438 130.898438 L -26.101562 101.59375 L -26.101562 44.128906 C -26.105469 43.320312 -26.03125 42.515625 -25.878906 41.71875 C -25.726562 40.921875 -25.496094 40.148438 -25.191406 39.398438 C -24.882812 38.644531 -24.507812 37.929688 -24.058594 37.253906 C -23.613281 36.578125 -23.101562 35.953125 -22.53125 35.375 C -21.960938 34.800781 -21.335938 34.285156 -20.664062 33.835938 C -19.992188 33.382812 -19.28125 33 -18.53125 32.6875 C -17.78125 32.375 -17.007812 32.140625 -16.214844 31.980469 C -15.417969 31.824219 -14.613281 31.742188 -13.804688 31.742188 C -12.992188 31.742188 -12.1875 31.824219 -11.394531 31.980469 C -10.597656 32.140625 -9.824219 32.375 -9.078125 32.6875 C -8.328125 33 -7.617188 33.382812 -6.945312 33.835938 C -6.269531 34.285156 -5.648438 34.800781 -5.078125 35.375 C -4.503906 35.953125 -3.996094 36.578125 -3.546875 37.253906 C -3.101562 37.929688 -2.722656 38.644531 -2.417969 39.398438 C -2.109375 40.148438 -1.878906 40.921875 -1.726562 41.71875 C -1.574219 42.515625 -1.5 43.320312 -1.507812 44.128906 L -1.507812 107.15625 C -1.503906 108.121094 -1.617188 109.070312 -1.839844 110.007812 C -2.0625 110.941406 -2.390625 111.839844 -2.824219 112.699219 C -3.257812 113.558594 -3.785156 114.355469 -4.40625 115.089844 C -5.027344 115.824219 -5.722656 116.480469 -6.5 117.050781 L -50.285156 155.015625 L -50.285156 220.242188 L -30.285156 294.871094 C -30.144531 295.402344 -30.027344 295.941406 -29.9375 296.484375 C -29.847656 297.027344 -29.785156 297.570312 -29.75 298.121094 C -29.714844 298.667969 -29.707031 299.21875 -29.722656 299.769531 C -29.742188 300.320312 -29.785156 300.867188 -29.859375 301.410156 C -29.929688 301.957031 -30.027344 302.496094 -30.152344 303.035156 C -30.277344 303.570312 -30.429688 304.097656 -30.605469 304.617188 C -30.78125 305.140625 -30.984375 305.648438 -31.210938 306.152344 C -31.4375 306.652344 -31.691406 307.140625 -31.964844 307.617188 C -32.238281 308.09375 -32.539062 308.554688 -32.859375 309.003906 C -33.179688 309.449219 -33.519531 309.878906 -33.882812 310.292969 C -34.246094 310.707031 -34.628906 311.101562 -35.03125 311.476562 C -35.429688 311.855469 -35.851562 312.210938 -36.285156 312.542969 C -36.722656 312.878906 -37.175781 313.191406 -37.640625 313.484375 C -38.109375 313.773438 -38.589844 314.039062 -39.082031 314.285156 C -39.574219 314.527344 -40.082031 314.746094 -40.59375 314.9375 C -41.109375 315.132812 -41.632812 315.300781 -42.164062 315.445312 C -42.695312 315.585938 -43.234375 315.703125 -43.777344 315.792969 C -44.316406 315.882812 -44.863281 315.945312 -45.414062 315.980469 C -45.960938 316.015625 -46.511719 316.023438 -47.0625 316.007812 C -47.609375 315.988281 -48.160156 315.945312 -48.703125 315.871094 C -49.25 315.800781 -49.789062 315.703125 -50.324219 315.578125 C -50.863281 315.453125 -51.390625 315.300781 -51.910156 315.125 C -52.433594 314.949219 -52.941406 314.746094 -53.445312 314.519531 C -53.945312 314.292969 -54.433594 314.039062 -54.910156 313.765625 C -55.386719 313.492188 -55.847656 313.191406 -56.296875 312.871094 C -56.742188 312.550781 -57.171875 312.210938 -57.585938 311.847656 C -58 311.484375 -58.394531 311.101562 -58.769531 310.703125 C -59.148438 310.300781 -59.503906 309.878906 -59.835938 309.445312 C -60.171875 309.007812 -60.484375 308.554688 -60.777344 308.089844 C -61.066406 307.621094 -61.332031 307.140625 -61.578125 306.648438 C -61.820312 306.15625 -62.039062 305.652344 -62.230469 305.136719 C -62.425781 304.621094 -62.59375 304.097656 -62.734375 303.566406 L -83.878906 224.664062 L -105.019531 303.566406 C -105.160156 304.097656 -105.328125 304.621094 -105.523438 305.132812 C -105.71875 305.648438 -105.9375 306.152344 -106.179688 306.648438 C -106.421875 307.140625 -106.6875 307.621094 -106.980469 308.085938 C -107.269531 308.554688 -107.582031 309.007812 -107.917969 309.441406 C -108.253906 309.878906 -108.609375 310.296875 -108.984375 310.699219 C -109.359375 311.101562 -109.753906 311.484375 -110.167969 311.847656 C -110.582031 312.210938 -111.011719 312.550781 -111.460938 312.871094 C -111.90625 313.191406 -112.367188 313.488281 -112.84375 313.765625 C -113.320312 314.039062 -113.8125 314.289062 -114.3125 314.515625 C -114.8125 314.746094 -115.324219 314.945312 -115.84375 315.125 C -116.367188 315.300781 -116.894531 315.449219 -117.429688 315.574219 C -117.964844 315.699219 -118.507812 315.800781 -119.050781 315.871094 C -119.597656 315.941406 -120.144531 315.988281 -120.695312 316.003906 C -121.242188 316.023438 -121.792969 316.015625 -122.34375 315.980469 C -122.890625 315.941406 -123.4375 315.878906 -123.980469 315.789062 C -124.523438 315.699219 -125.058594 315.585938 -125.589844 315.441406 C -126.121094 315.300781 -126.644531 315.132812 -127.160156 314.9375 C -127.675781 314.746094 -128.179688 314.527344 -128.671875 314.28125 C -129.167969 314.039062 -129.648438 313.773438 -130.113281 313.480469 C -130.582031 313.191406 -131.03125 312.878906 -131.46875 312.542969 C -131.90625 312.207031 -132.324219 311.851562 -132.726562 311.476562 C -133.128906 311.101562 -133.507812 310.707031 -133.871094 310.292969 C -134.234375 309.878906 -134.578125 309.449219 -134.898438 309 C -135.21875 308.554688 -135.515625 308.09375 -135.789062 307.617188 C -136.066406 307.140625 -136.316406 306.652344 -136.542969 306.148438 C -136.769531 305.648438 -136.972656 305.136719 -137.148438 304.617188 C -137.324219 304.097656 -137.476562 303.566406 -137.601562 303.03125 C -137.726562 302.496094 -137.824219 301.957031 -137.898438 301.410156 C -137.96875 300.863281 -138.015625 300.316406 -138.03125 299.765625 C -138.050781 299.21875 -138.039062 298.667969 -138.003906 298.117188 C -137.96875 297.570312 -137.90625 297.023438 -137.816406 296.480469 C -137.726562 295.9375 -137.609375 295.402344 -137.46875 294.871094 L -117.472656 220.242188 L -117.472656 155.015625 L -161.257812 117.050781 C -162.03125 116.480469 -162.730469 115.824219 -163.351562 115.089844 C -163.972656 114.355469 -164.5 113.558594 -164.933594 112.699219 C -165.367188 111.839844 -165.695312 110.941406 -165.917969 110.007812 C -166.140625 109.070312 -166.25 108.121094 -166.25 107.15625 L -166.25 44.128906 C -166.25 43.324219 -166.171875 42.523438 -166.011719 41.730469 C -165.855469 40.9375 -165.621094 40.171875 -165.3125 39.425781 C -165.003906 38.679688 -164.625 37.96875 -164.175781 37.296875 C -163.726562 36.625 -163.21875 36.003906 -162.648438 35.433594 C -162.078125 34.863281 -161.457031 34.355469 -160.785156 33.90625 C -160.113281 33.457031 -159.402344 33.078125 -158.65625 32.769531 C -157.910156 32.460938 -157.144531 32.226562 -156.351562 32.070312 C -155.558594 31.910156 -154.757812 31.832031 -153.953125 31.832031 Z M -35.382812 47.21875 L -132.371094 47.21875 L -132.371094 44.128906 C -132.371094 41.925781 -132.699219 39.769531 -133.359375 37.664062 L -34.394531 37.664062 C -35.054688 39.769531 -35.386719 41.925781 -35.382812 44.128906 Z M -239.023438 16.375 L -231.921875 16.375 C -231.394531 16.375 -230.886719 16.476562 -230.398438 16.679688 C -229.914062 16.882812 -229.484375 17.167969 -229.109375 17.542969 C -228.738281 17.914062 -228.449219 18.34375 -228.246094 18.832031 C -228.046875 19.316406 -227.945312 19.824219 -227.941406 20.351562 L -227.941406 64.53125 C -227.945312 65.058594 -228.046875 65.5625 -228.246094 66.050781 C -228.449219 66.539062 -228.738281 66.96875 -229.109375 67.339844 C -229.484375 67.714844 -229.914062 68 -230.398438 68.203125 C -230.886719 68.40625 -231.394531 68.507812 -231.921875 68.507812 L -239.023438 68.507812 C -239.550781 68.507812 -240.058594 68.40625 -240.542969 68.203125 C -241.03125 68 -241.460938 67.714844 -241.832031 67.339844 C -242.207031 66.96875 -242.492188 66.539062 -242.695312 66.050781 C -242.898438 65.5625 -243 65.058594 -243 64.53125 L -243 20.351562 C -243 19.824219 -242.898438 19.320312 -242.695312 18.832031 C -242.492188 18.34375 -242.207031 17.914062 -241.832031 17.542969 C -241.460938 17.167969 -241.03125 16.882812 -240.542969 16.679688 C -240.058594 16.476562 -239.550781 16.375 -239.023438 16.375 Z M -57.480469 91.425781 C -57.480469 92.292969 -57.523438 93.15625 -57.605469 94.015625 C -57.691406 94.875 -57.820312 95.730469 -57.988281 96.578125 C -58.15625 97.425781 -58.367188 98.261719 -58.617188 99.089844 C -58.867188 99.917969 -59.160156 100.730469 -59.488281 101.53125 C -59.820312 102.328125 -60.1875 103.109375 -60.597656 103.871094 C -61.003906 104.632812 -61.449219 105.375 -61.929688 106.09375 C -62.410156 106.8125 -62.921875 107.507812 -63.472656 108.175781 C -64.019531 108.84375 -64.601562 109.484375 -65.210938 110.09375 C -65.824219 110.707031 -66.464844 111.285156 -67.132812 111.835938 C -67.800781 112.382812 -68.492188 112.898438 -69.210938 113.378906 C -69.929688 113.859375 -70.671875 114.300781 -71.433594 114.710938 C -72.195312 115.117188 -72.976562 115.488281 -73.777344 115.816406 C -74.574219 116.148438 -75.386719 116.4375 -76.214844 116.691406 C -77.042969 116.941406 -77.878906 117.152344 -78.726562 117.320312 C -79.578125 117.488281 -80.429688 117.613281 -81.289062 117.699219 C -82.152344 117.785156 -83.015625 117.828125 -83.878906 117.828125 C -84.742188 117.828125 -85.605469 117.785156 -86.464844 117.699219 C -87.328125 117.613281 -88.179688 117.488281 -89.027344 117.320312 C -89.875 117.152344 -90.714844 116.941406 -91.542969 116.691406 C -92.367188 116.4375 -93.183594 116.148438 -93.980469 115.816406 C -94.78125 115.488281 -95.558594 115.117188 -96.324219 114.710938 C -97.085938 114.300781 -97.824219 113.859375 -98.542969 113.378906 C -99.261719 112.898438 -99.957031 112.382812 -100.625 111.835938 C -101.292969 111.285156 -101.933594 110.707031 -102.546875 110.09375 C -103.15625 109.484375 -103.734375 108.84375 -104.285156 108.175781 C -104.832031 107.507812 -105.347656 106.8125 -105.828125 106.09375 C -106.308594 105.375 -106.753906 104.636719 -107.160156 103.871094 C -107.566406 103.109375 -107.9375 102.328125 -108.265625 101.53125 C -108.597656 100.730469 -108.890625 99.917969 -109.140625 99.089844 C -109.390625 98.265625 -109.601562 97.425781 -109.769531 96.578125 C -109.9375 95.730469 -110.066406 94.875 -110.148438 94.015625 C -110.234375 93.15625 -110.277344 92.292969 -110.277344 91.429688 C -110.277344 90.5625 -110.234375 89.699219 -110.148438 88.839844 C -110.066406 87.980469 -109.9375 87.125 -109.769531 86.277344 C -109.601562 85.429688 -109.390625 84.59375 -109.140625 83.765625 C -108.890625 82.9375 -108.597656 82.125 -108.265625 81.324219 C -107.9375 80.527344 -107.566406 79.746094 -107.160156 78.984375 C -106.753906 78.222656 -106.308594 77.480469 -105.828125 76.761719 C -105.347656 76.042969 -104.832031 75.347656 -104.285156 74.679688 C -103.734375 74.011719 -103.15625 73.371094 -102.542969 72.761719 C -101.933594 72.148438 -101.292969 71.570312 -100.625 71.023438 C -99.957031 70.472656 -99.261719 69.957031 -98.542969 69.476562 C -97.824219 69 -97.085938 68.554688 -96.320312 68.148438 C -95.558594 67.738281 -94.777344 67.371094 -93.980469 67.039062 C -93.179688 66.707031 -92.367188 66.417969 -91.539062 66.167969 C -90.714844 65.914062 -89.875 65.707031 -89.027344 65.535156 C -88.179688 65.367188 -87.324219 65.242188 -86.464844 65.15625 C -85.605469 65.070312 -84.742188 65.03125 -83.878906 65.03125 C -83.011719 65.03125 -82.152344 65.070312 -81.289062 65.15625 C -80.429688 65.242188 -79.574219 65.367188 -78.726562 65.535156 C -77.878906 65.707031 -77.042969 65.914062 -76.214844 66.167969 C -75.386719 66.417969 -74.574219 66.707031 -73.777344 67.039062 C -72.976562 67.371094 -72.195312 67.738281 -71.433594 68.148438 C -70.671875 68.554688 -69.929688 69 -69.210938 69.480469 C -68.492188 69.960938 -67.800781 70.472656 -67.132812 71.023438 C -66.460938 71.570312 -65.824219 72.148438 -65.210938 72.761719 C -64.601562 73.371094 -64.019531 74.011719 -63.472656 74.679688 C -62.921875 75.347656 -62.410156 76.042969 -61.929688 76.761719 C -61.449219 77.480469 -61.003906 78.222656 -60.597656 78.984375 C -60.1875 79.746094 -59.820312 80.527344 -59.488281 81.324219 C -59.160156 82.125 -58.867188 82.9375 -58.617188 83.765625 C -58.367188 84.59375 -58.15625 85.429688 -57.988281 86.277344 C -57.820312 87.125 -57.691406 87.980469 -57.605469 88.839844 C -57.523438 89.699219 -57.480469 90.5625 -57.480469 91.429688 Z M -175.53125 44.128906 L -175.53125 47.21875 L -194.320312 47.21875 L -194.320312 37.664062 L -174.542969 37.664062 C -175.203125 39.769531 -175.53125 41.925781 -175.53125 44.128906 Z M -214.683594 1.105469 L -207.578125 1.105469 C -207.054688 1.105469 -206.546875 1.207031 -206.058594 1.410156 C -205.570312 1.613281 -205.140625 1.902344 -204.769531 2.273438 C -204.398438 2.644531 -204.109375 3.074219 -203.90625 3.5625 C -203.703125 4.050781 -203.601562 4.558594 -203.601562 5.085938 L -203.601562 79.796875 C -203.601562 80.324219 -203.703125 80.832031 -203.90625 81.320312 C -204.109375 81.804688 -204.398438 82.234375 -204.769531 82.609375 C -205.140625 82.980469 -205.570312 83.269531 -206.058594 83.472656 C -206.546875 83.671875 -207.054688 83.773438 -207.578125 83.777344 L -214.683594 83.777344 C -215.210938 83.777344 -215.71875 83.675781 -216.203125 83.472656 C -216.691406 83.269531 -217.121094 82.980469 -217.492188 82.609375 C -217.867188 82.234375 -218.152344 81.804688 -218.355469 81.320312 C -218.558594 80.832031 -218.660156 80.324219 -218.660156 79.796875 L -218.660156 5.085938 C -218.660156 4.558594 -218.558594 4.050781 -218.355469 3.5625 C -218.152344 3.074219 -217.867188 2.644531 -217.492188 2.273438 C -217.121094 1.902344 -216.691406 1.613281 -216.203125 1.410156 C -215.71875 1.207031 -215.210938 1.105469 -214.683594 1.105469 Z M 26.566406 47.21875 L 7.777344 47.21875 L 7.777344 44.128906 C 7.777344 41.925781 7.449219 39.769531 6.789062 37.664062 L 26.566406 37.664062 Z M 26.566406 47.21875 " fill-opacity="1" fill-rule="nonzero"/></g></g></g></g></svg>