<svg version="1.0" preserveAspectRatio="xMidYMid meet" viewBox="354 566.999974674 795 341.999984724" zoomAndPan="magnify" xmlns:xlink="http://www.w3.org/1999/xlink" xmlns="http://www.w3.org/2000/svg" style="max-height: 500px" width="795" height="341.999984724"><defs><g/><clipPath id="06c9ed887a"><path clip-rule="nonzero" d="M 364.9375 584.425781 L 966.4375 584.425781 L 966.4375 795.925781 L 364.9375 795.925781 Z M 364.9375 584.425781"/></clipPath><clipPath id="3f321f8cd6"><rect height="194" y="0" width="772" x="0"/></clipPath></defs><g clip-path="url(#06c9ed887a)"><path fill-rule="nonzero" fill-opacity="1" d="M 393.414062 621.097656 L 393.414062 704.644531 C 393.414062 705.136719 393.363281 705.625 393.265625 706.109375 C 393.167969 706.59375 393.027344 707.0625 392.835938 707.519531 C 392.648438 707.976562 392.414062 708.410156 392.140625 708.820312 C 391.867188 709.230469 391.554688 709.609375 391.207031 709.957031 C 390.855469 710.308594 390.476562 710.621094 390.066406 710.894531 C 389.65625 711.167969 389.222656 711.398438 388.765625 711.589844 C 388.3125 711.777344 387.839844 711.921875 387.355469 712.019531 C 386.871094 712.117188 386.382812 712.164062 385.890625 712.167969 L 372.460938 712.167969 C 371.964844 712.164062 371.476562 712.117188 370.992188 712.019531 C 370.507812 711.921875 370.039062 711.78125 369.582031 711.589844 C 369.125 711.402344 368.691406 711.167969 368.28125 710.894531 C 367.871094 710.621094 367.492188 710.308594 367.144531 709.957031 C 366.792969 709.609375 366.484375 709.230469 366.207031 708.820312 C 365.933594 708.410156 365.703125 707.976562 365.511719 707.519531 C 365.324219 707.0625 365.179688 706.59375 365.082031 706.109375 C 364.984375 705.625 364.9375 705.136719 364.9375 704.644531 L 364.9375 621.097656 C 364.9375 620.605469 364.984375 620.113281 365.082031 619.628906 C 365.179688 619.148438 365.324219 618.675781 365.511719 618.222656 C 365.703125 617.765625 365.933594 617.332031 366.207031 616.921875 C 366.484375 616.511719 366.792969 616.132812 367.144531 615.78125 C 367.492188 615.433594 367.871094 615.121094 368.28125 614.847656 C 368.691406 614.574219 369.125 614.339844 369.582031 614.152344 C 370.039062 613.960938 370.507812 613.820312 370.992188 613.722656 C 371.476562 613.625 371.964844 613.574219 372.460938 613.574219 L 385.890625 613.574219 C 386.382812 613.574219 386.871094 613.625 387.355469 613.722656 C 387.839844 613.820312 388.3125 613.960938 388.765625 614.152344 C 389.222656 614.339844 389.65625 614.574219 390.066406 614.847656 C 390.476562 615.121094 390.855469 615.433594 391.207031 615.78125 C 391.554688 616.132812 391.867188 616.511719 392.140625 616.921875 C 392.414062 617.332031 392.648438 617.765625 392.835938 618.222656 C 393.027344 618.675781 393.167969 619.148438 393.265625 619.628906 C 393.363281 620.113281 393.414062 620.605469 393.414062 621.097656 Z M 431.921875 584.699219 L 418.488281 584.699219 C 417.996094 584.699219 417.507812 584.75 417.023438 584.847656 C 416.539062 584.941406 416.070312 585.085938 415.613281 585.277344 C 415.15625 585.464844 414.722656 585.695312 414.3125 585.972656 C 413.902344 586.246094 413.523438 586.558594 413.175781 586.90625 C 412.824219 587.257812 412.511719 587.636719 412.238281 588.046875 C 411.964844 588.457031 411.730469 588.890625 411.542969 589.347656 C 411.351562 589.800781 411.210938 590.273438 411.113281 590.753906 C 411.015625 591.238281 410.96875 591.730469 410.964844 592.222656 L 410.964844 733.519531 C 410.96875 734.011719 411.015625 734.5 411.113281 734.984375 C 411.210938 735.46875 411.351562 735.9375 411.542969 736.394531 C 411.730469 736.851562 411.964844 737.285156 412.238281 737.695312 C 412.511719 738.105469 412.824219 738.484375 413.171875 738.832031 C 413.523438 739.183594 413.902344 739.496094 414.3125 739.769531 C 414.722656 740.042969 415.15625 740.277344 415.613281 740.464844 C 416.070312 740.65625 416.539062 740.796875 417.023438 740.894531 C 417.507812 740.992188 417.996094 741.039062 418.488281 741.042969 L 431.921875 741.042969 C 432.414062 741.039062 432.902344 740.992188 433.386719 740.894531 C 433.871094 740.796875 434.339844 740.65625 434.796875 740.464844 C 435.253906 740.277344 435.6875 740.042969 436.097656 739.769531 C 436.507812 739.496094 436.886719 739.183594 437.234375 738.832031 C 437.585938 738.484375 437.898438 738.105469 438.171875 737.695312 C 438.445312 737.285156 438.679688 736.851562 438.867188 736.394531 C 439.058594 735.9375 439.199219 735.46875 439.296875 734.984375 C 439.394531 734.5 439.441406 734.011719 439.445312 733.519531 L 439.445312 592.222656 C 439.441406 591.730469 439.394531 591.238281 439.296875 590.753906 C 439.199219 590.273438 439.054688 589.800781 438.867188 589.347656 C 438.679688 588.890625 438.445312 588.457031 438.171875 588.046875 C 437.898438 587.636719 437.585938 587.257812 437.234375 586.90625 C 436.886719 586.558594 436.507812 586.246094 436.097656 585.972656 C 435.6875 585.695312 435.253906 585.464844 434.796875 585.277344 C 434.339844 585.085938 433.871094 584.941406 433.386719 584.847656 C 432.902344 584.75 432.414062 584.699219 431.921875 584.699219 Z M 798.382812 642.808594 C 797.621094 642.808594 796.859375 642.84375 796.101562 642.921875 C 795.34375 642.996094 794.59375 643.105469 793.84375 643.253906 C 793.097656 643.402344 792.359375 643.589844 791.632812 643.808594 C 790.902344 644.03125 790.1875 644.289062 789.480469 644.578125 C 788.777344 644.871094 788.089844 645.195312 787.417969 645.554688 C 786.746094 645.914062 786.09375 646.304688 785.460938 646.726562 C 784.828125 647.152344 784.21875 647.605469 783.628906 648.085938 C 783.039062 648.570312 782.476562 649.082031 781.9375 649.621094 C 781.398438 650.160156 780.886719 650.722656 780.40625 651.3125 C 779.921875 651.898438 779.46875 652.511719 779.046875 653.144531 C 778.621094 653.777344 778.230469 654.429688 777.871094 655.101562 C 777.511719 655.773438 777.1875 656.460938 776.898438 657.164062 C 776.605469 657.867188 776.347656 658.585938 776.128906 659.3125 C 775.90625 660.042969 775.722656 660.78125 775.574219 661.527344 C 775.425781 662.273438 775.3125 663.027344 775.238281 663.785156 C 775.164062 664.542969 775.125 665.304688 775.125 666.066406 L 775.125 774.738281 L 711.210938 830.15625 L 620.511719 830.15625 L 556.597656 774.738281 L 556.597656 666.066406 C 556.601562 665.300781 556.570312 664.535156 556.5 663.773438 C 556.429688 663.011719 556.324219 662.253906 556.179688 661.503906 C 556.035156 660.75 555.851562 660.007812 555.636719 659.277344 C 555.417969 658.542969 555.164062 657.820312 554.875 657.113281 C 554.585938 656.402344 554.261719 655.710938 553.90625 655.035156 C 553.546875 654.359375 553.160156 653.699219 552.738281 653.0625 C 552.316406 652.425781 551.863281 651.808594 551.378906 651.214844 C 550.894531 650.621094 550.382812 650.054688 549.84375 649.511719 C 549.304688 648.96875 548.742188 648.453125 548.152344 647.964844 C 547.5625 647.476562 546.949219 647.019531 546.3125 646.59375 C 545.679688 646.167969 545.023438 645.773438 544.351562 645.410156 C 543.675781 645.046875 542.988281 644.71875 542.28125 644.425781 C 541.574219 644.128906 540.855469 643.871094 540.121094 643.648438 C 539.390625 643.425781 538.648438 643.238281 537.898438 643.089844 C 537.148438 642.9375 536.390625 642.828125 535.632812 642.75 C 534.871094 642.675781 534.105469 642.636719 533.339844 642.636719 C 532.574219 642.636719 531.8125 642.675781 531.050781 642.75 C 530.289062 642.828125 529.535156 642.9375 528.78125 643.089844 C 528.03125 643.238281 527.292969 643.425781 526.558594 643.648438 C 525.828125 643.871094 525.109375 644.128906 524.402344 644.425781 C 523.695312 644.71875 523.003906 645.046875 522.332031 645.410156 C 521.65625 645.773438 521.003906 646.167969 520.367188 646.59375 C 519.730469 647.019531 519.121094 647.476562 518.53125 647.964844 C 517.941406 648.453125 517.375 648.96875 516.835938 649.511719 C 516.296875 650.054688 515.785156 650.621094 515.304688 651.214844 C 514.820312 651.808594 514.367188 652.425781 513.945312 653.0625 C 513.523438 653.699219 513.132812 654.359375 512.777344 655.035156 C 512.417969 655.710938 512.09375 656.402344 511.804688 657.113281 C 511.515625 657.820312 511.265625 658.542969 511.046875 659.277344 C 510.828125 660.007812 510.648438 660.75 510.503906 661.503906 C 510.359375 662.253906 510.25 663.011719 510.179688 663.773438 C 510.113281 664.535156 510.078125 665.300781 510.085938 666.066406 L 510.085938 785.261719 C 510.082031 787.078125 510.292969 788.875 510.714844 790.644531 C 511.132812 792.417969 511.753906 794.113281 512.574219 795.738281 C 513.394531 797.363281 514.390625 798.871094 515.566406 800.261719 C 516.742188 801.652344 518.058594 802.886719 519.523438 803.96875 L 602.332031 875.765625 L 602.332031 999.117188 L 564.511719 1140.253906 C 564.246094 1141.257812 564.023438 1142.273438 563.855469 1143.300781 C 563.6875 1144.328125 563.566406 1145.359375 563.5 1146.398438 C 563.429688 1147.4375 563.414062 1148.476562 563.449219 1149.515625 C 563.480469 1150.554688 563.566406 1151.589844 563.703125 1152.621094 C 563.839844 1153.652344 564.023438 1154.675781 564.261719 1155.6875 C 564.496094 1156.703125 564.78125 1157.703125 565.117188 1158.6875 C 565.453125 1159.671875 565.832031 1160.636719 566.261719 1161.585938 C 566.691406 1162.535156 567.167969 1163.457031 567.6875 1164.359375 C 568.207031 1165.257812 568.769531 1166.132812 569.375 1166.980469 C 569.980469 1167.824219 570.628906 1168.636719 571.3125 1169.421875 C 572 1170.203125 572.722656 1170.949219 573.480469 1171.660156 C 574.242188 1172.371094 575.035156 1173.042969 575.859375 1173.675781 C 576.683594 1174.3125 577.539062 1174.902344 578.421875 1175.453125 C 579.304688 1176 580.214844 1176.503906 581.148438 1176.964844 C 582.082031 1177.425781 583.035156 1177.839844 584.007812 1178.207031 C 584.980469 1178.570312 585.96875 1178.890625 586.976562 1179.160156 C 587.980469 1179.429688 588.996094 1179.648438 590.023438 1179.816406 C 591.046875 1179.988281 592.082031 1180.105469 593.117188 1180.171875 C 594.15625 1180.242188 595.195312 1180.257812 596.234375 1180.226562 C 597.277344 1180.191406 598.3125 1180.105469 599.34375 1179.96875 C 600.375 1179.835938 601.398438 1179.648438 602.410156 1179.410156 C 603.421875 1179.175781 604.421875 1178.890625 605.40625 1178.554688 C 606.390625 1178.222656 607.359375 1177.839844 608.304688 1177.410156 C 609.253906 1176.980469 610.179688 1176.507812 611.078125 1175.984375 C 611.980469 1175.464844 612.855469 1174.902344 613.699219 1174.296875 C 614.546875 1173.691406 615.359375 1173.042969 616.140625 1172.359375 C 616.921875 1171.671875 617.671875 1170.949219 618.382812 1170.191406 C 619.09375 1169.429688 619.765625 1168.640625 620.398438 1167.8125 C 621.03125 1166.988281 621.621094 1166.132812 622.171875 1165.25 C 622.722656 1164.367188 623.226562 1163.457031 623.6875 1162.527344 C 624.148438 1161.59375 624.558594 1160.640625 624.925781 1159.664062 C 625.292969 1158.691406 625.609375 1157.703125 625.878906 1156.699219 L 665.863281 1007.480469 L 705.84375 1156.695312 C 706.113281 1157.699219 706.429688 1158.6875 706.796875 1159.664062 C 707.164062 1160.636719 707.578125 1161.589844 708.035156 1162.523438 C 708.496094 1163.457031 709 1164.363281 709.550781 1165.246094 C 710.101562 1166.132812 710.691406 1166.984375 711.324219 1167.8125 C 711.957031 1168.636719 712.628906 1169.429688 713.34375 1170.1875 C 714.054688 1170.949219 714.800781 1171.671875 715.582031 1172.355469 C 716.363281 1173.042969 717.179688 1173.6875 718.023438 1174.292969 C 718.871094 1174.898438 719.742188 1175.464844 720.644531 1175.984375 C 721.542969 1176.503906 722.46875 1176.976562 723.417969 1177.40625 C 724.363281 1177.835938 725.332031 1178.21875 726.316406 1178.554688 C 727.300781 1178.886719 728.300781 1179.171875 729.3125 1179.410156 C 730.328125 1179.644531 731.347656 1179.832031 732.378906 1179.96875 C 733.410156 1180.101562 734.449219 1180.1875 735.488281 1180.222656 C 736.527344 1180.257812 737.566406 1180.238281 738.605469 1180.171875 C 739.640625 1180.101562 740.675781 1179.984375 741.699219 1179.816406 C 742.726562 1179.644531 743.742188 1179.425781 744.746094 1179.15625 C 745.753906 1178.886719 746.742188 1178.570312 747.714844 1178.203125 C 748.691406 1177.835938 749.644531 1177.421875 750.574219 1176.964844 C 751.507812 1176.503906 752.417969 1176 753.300781 1175.449219 C 754.183594 1174.898438 755.039062 1174.308594 755.863281 1173.675781 C 756.691406 1173.042969 757.480469 1172.371094 758.242188 1171.65625 C 759 1170.945312 759.722656 1170.199219 760.410156 1169.417969 C 761.09375 1168.636719 761.742188 1167.820312 762.347656 1166.976562 C 762.953125 1166.128906 763.515625 1165.257812 764.035156 1164.355469 C 764.554688 1163.457031 765.03125 1162.53125 765.460938 1161.582031 C 765.890625 1160.636719 766.273438 1159.667969 766.605469 1158.683594 C 766.941406 1157.699219 767.226562 1156.699219 767.460938 1155.6875 C 767.699219 1154.671875 767.882812 1153.652344 768.019531 1152.621094 C 768.15625 1151.589844 768.242188 1150.550781 768.273438 1149.511719 C 768.308594 1148.472656 768.292969 1147.433594 768.222656 1146.394531 C 768.15625 1145.359375 768.039062 1144.324219 767.867188 1143.300781 C 767.699219 1142.273438 767.480469 1141.257812 767.210938 1140.253906 L 729.390625 999.117188 L 729.390625 875.765625 L 812.199219 803.96875 C 813.664062 802.886719 814.984375 801.652344 816.15625 800.261719 C 817.332031 798.871094 818.328125 797.363281 819.148438 795.738281 C 819.96875 794.113281 820.589844 792.417969 821.007812 790.644531 C 821.429688 788.875 821.640625 787.078125 821.636719 785.261719 L 821.636719 666.066406 C 821.636719 665.304688 821.601562 664.542969 821.527344 663.785156 C 821.453125 663.027344 821.339844 662.273438 821.191406 661.527344 C 821.042969 660.78125 820.859375 660.042969 820.636719 659.3125 C 820.414062 658.585938 820.160156 657.867188 819.867188 657.164062 C 819.578125 656.460938 819.25 655.773438 818.890625 655.101562 C 818.53125 654.429688 818.140625 653.777344 817.71875 653.144531 C 817.296875 652.511719 816.84375 651.898438 816.359375 651.3125 C 815.875 650.722656 815.363281 650.160156 814.828125 649.621094 C 814.289062 649.082031 813.722656 648.570312 813.136719 648.085938 C 812.546875 647.605469 811.9375 647.152344 811.300781 646.726562 C 810.667969 646.304688 810.015625 645.914062 809.34375 645.554688 C 808.671875 645.195312 807.984375 644.871094 807.28125 644.578125 C 806.578125 644.285156 805.863281 644.03125 805.132812 643.808594 C 804.402344 643.589844 803.664062 643.402344 802.917969 643.253906 C 802.171875 643.105469 801.417969 642.996094 800.660156 642.921875 C 799.902344 642.84375 799.144531 642.808594 798.382812 642.808594 Z M 574.152344 671.902344 L 757.574219 671.902344 L 757.574219 666.066406 C 757.570312 661.894531 758.191406 657.816406 759.4375 653.839844 L 572.285156 653.839844 C 573.53125 657.816406 574.152344 661.894531 574.152344 666.066406 Z M 959.265625 613.574219 L 945.832031 613.574219 C 945.339844 613.574219 944.851562 613.625 944.367188 613.722656 C 943.882812 613.820312 943.414062 613.960938 942.957031 614.152344 C 942.5 614.339844 942.066406 614.574219 941.65625 614.847656 C 941.246094 615.121094 940.867188 615.433594 940.515625 615.78125 C 940.167969 616.132812 939.855469 616.511719 939.582031 616.921875 C 939.308594 617.332031 939.074219 617.765625 938.886719 618.222656 C 938.695312 618.675781 938.554688 619.148438 938.457031 619.628906 C 938.359375 620.113281 938.3125 620.605469 938.308594 621.097656 L 938.308594 704.644531 C 938.3125 705.136719 938.359375 705.625 938.457031 706.109375 C 938.554688 706.59375 938.695312 707.0625 938.886719 707.519531 C 939.074219 707.976562 939.308594 708.410156 939.582031 708.820312 C 939.855469 709.230469 940.167969 709.609375 940.515625 709.957031 C 940.867188 710.308594 941.246094 710.621094 941.65625 710.894531 C 942.066406 711.167969 942.5 711.402344 942.957031 711.589844 C 943.410156 711.78125 943.882812 711.921875 944.367188 712.019531 C 944.851562 712.117188 945.339844 712.164062 945.832031 712.167969 L 959.265625 712.167969 C 959.757812 712.164062 960.246094 712.117188 960.730469 712.019531 C 961.214844 711.921875 961.683594 711.78125 962.140625 711.589844 C 962.597656 711.402344 963.03125 711.167969 963.441406 710.894531 C 963.851562 710.621094 964.230469 710.308594 964.578125 709.957031 C 964.929688 709.609375 965.242188 709.230469 965.515625 708.820312 C 965.789062 708.410156 966.023438 707.976562 966.210938 707.519531 C 966.398438 707.0625 966.542969 706.59375 966.640625 706.109375 C 966.738281 705.625 966.785156 705.136719 966.789062 704.644531 L 966.789062 621.097656 C 966.785156 620.605469 966.738281 620.113281 966.640625 619.628906 C 966.542969 619.148438 966.398438 618.675781 966.210938 618.222656 C 966.019531 617.765625 965.789062 617.332031 965.515625 616.921875 C 965.242188 616.511719 964.929688 616.132812 964.578125 615.78125 C 964.230469 615.433594 963.851562 615.121094 963.441406 614.847656 C 963.03125 614.574219 962.597656 614.339844 962.140625 614.152344 C 961.683594 613.960938 961.214844 613.820312 960.730469 613.722656 C 960.246094 613.625 959.757812 613.574219 959.265625 613.574219 Z M 615.9375 755.511719 C 615.9375 757.144531 616.019531 758.777344 616.179688 760.40625 C 616.339844 762.03125 616.578125 763.648438 616.898438 765.25 C 617.21875 766.855469 617.613281 768.4375 618.089844 770.003906 C 618.5625 771.566406 619.113281 773.105469 619.738281 774.617188 C 620.363281 776.128906 621.0625 777.601562 621.832031 779.046875 C 622.605469 780.488281 623.445312 781.886719 624.351562 783.246094 C 625.261719 784.605469 626.234375 785.917969 627.269531 787.183594 C 628.308594 788.445312 629.40625 789.65625 630.5625 790.8125 C 631.71875 791.96875 632.925781 793.066406 634.191406 794.101562 C 635.457031 795.140625 636.765625 796.113281 638.125 797.023438 C 639.484375 797.929688 640.886719 798.769531 642.328125 799.539062 C 643.769531 800.3125 645.246094 801.011719 646.757812 801.636719 C 648.269531 802.261719 649.804688 802.8125 651.371094 803.285156 C 652.933594 803.761719 654.519531 804.15625 656.125 804.476562 C 657.726562 804.796875 659.34375 805.035156 660.96875 805.195312 C 662.597656 805.355469 664.226562 805.4375 665.863281 805.4375 C 667.496094 805.4375 669.128906 805.355469 670.757812 805.195312 C 672.382812 805.035156 674 804.796875 675.601562 804.476562 C 677.207031 804.15625 678.789062 803.761719 680.355469 803.285156 C 681.917969 802.8125 683.457031 802.261719 684.96875 801.636719 C 686.476562 801.011719 687.953125 800.3125 689.398438 799.542969 C 690.839844 798.769531 692.238281 797.929688 693.597656 797.023438 C 694.957031 796.113281 696.269531 795.140625 697.535156 794.105469 C 698.796875 793.066406 700.007812 791.96875 701.164062 790.8125 C 702.320312 789.65625 703.417969 788.449219 704.453125 787.183594 C 705.492188 785.917969 706.464844 784.609375 707.371094 783.25 C 708.28125 781.890625 709.121094 780.488281 709.890625 779.046875 C 710.664062 777.605469 711.359375 776.128906 711.984375 774.617188 C 712.613281 773.105469 713.164062 771.570312 713.636719 770.003906 C 714.113281 768.441406 714.507812 766.855469 714.828125 765.25 C 715.144531 763.648438 715.386719 762.03125 715.546875 760.40625 C 715.707031 758.777344 715.785156 757.148438 715.785156 755.511719 C 715.785156 753.878906 715.707031 752.246094 715.546875 750.617188 C 715.386719 748.992188 715.144531 747.375 714.828125 745.773438 C 714.507812 744.167969 714.109375 742.585938 713.636719 741.019531 C 713.160156 739.457031 712.613281 737.917969 711.984375 736.40625 C 711.359375 734.894531 710.660156 733.421875 709.890625 731.976562 C 709.121094 730.535156 708.28125 729.136719 707.371094 727.777344 C 706.464844 726.417969 705.492188 725.105469 704.453125 723.839844 C 703.417969 722.578125 702.320312 721.367188 701.164062 720.210938 C 700.007812 719.054688 698.796875 717.957031 697.535156 716.921875 C 696.269531 715.882812 694.957031 714.910156 693.597656 714 C 692.238281 713.09375 690.835938 712.253906 689.394531 711.484375 C 687.953125 710.710938 686.476562 710.015625 684.96875 709.386719 C 683.457031 708.761719 681.917969 708.210938 680.355469 707.738281 C 678.789062 707.261719 677.203125 706.867188 675.601562 706.546875 C 673.996094 706.230469 672.382812 705.988281 670.753906 705.828125 C 669.128906 705.667969 667.496094 705.589844 665.863281 705.589844 C 664.226562 705.589844 662.59375 705.667969 660.96875 705.828125 C 659.339844 705.988281 657.726562 706.230469 656.121094 706.546875 C 654.519531 706.867188 652.933594 707.265625 651.371094 707.738281 C 649.804688 708.214844 648.265625 708.761719 646.757812 709.390625 C 645.246094 710.015625 643.769531 710.710938 642.328125 711.484375 C 640.886719 712.253906 639.484375 713.09375 638.125 714.003906 C 636.765625 714.910156 635.453125 715.882812 634.191406 716.921875 C 632.925781 717.957031 631.71875 719.054688 630.5625 720.210938 C 629.40625 721.367188 628.308594 722.578125 627.269531 723.839844 C 626.234375 725.105469 625.261719 726.417969 624.351562 727.777344 C 623.445312 729.136719 622.605469 730.535156 621.832031 731.976562 C 621.0625 733.421875 620.363281 734.898438 619.738281 736.40625 C 619.113281 737.917969 618.5625 739.457031 618.089844 741.019531 C 617.613281 742.585938 617.21875 744.167969 616.898438 745.773438 C 616.578125 747.375 616.339844 748.992188 616.179688 750.617188 C 616.019531 752.246094 615.9375 753.878906 615.9375 755.511719 Z M 839.191406 666.066406 L 839.191406 671.902344 L 874.726562 671.902344 L 874.726562 653.839844 L 837.328125 653.839844 C 838.574219 657.816406 839.195312 661.894531 839.191406 666.066406 Z M 913.234375 584.699219 L 899.800781 584.699219 C 899.308594 584.699219 898.820312 584.75 898.335938 584.847656 C 897.851562 584.941406 897.378906 585.085938 896.925781 585.277344 C 896.46875 585.464844 896.035156 585.695312 895.625 585.972656 C 895.214844 586.246094 894.835938 586.558594 894.484375 586.90625 C 894.136719 587.257812 893.824219 587.636719 893.550781 588.046875 C 893.277344 588.457031 893.042969 588.890625 892.855469 589.347656 C 892.664062 589.800781 892.523438 590.273438 892.425781 590.753906 C 892.328125 591.238281 892.277344 591.730469 892.277344 592.222656 L 892.277344 733.519531 C 892.277344 734.011719 892.328125 734.5 892.425781 734.984375 C 892.523438 735.46875 892.664062 735.9375 892.855469 736.394531 C 893.042969 736.851562 893.277344 737.285156 893.550781 737.695312 C 893.824219 738.105469 894.136719 738.484375 894.484375 738.832031 C 894.835938 739.183594 895.214844 739.496094 895.625 739.769531 C 896.035156 740.042969 896.46875 740.273438 896.925781 740.464844 C 897.378906 740.652344 897.851562 740.796875 898.335938 740.894531 C 898.820312 740.992188 899.308594 741.039062 899.800781 741.042969 L 913.234375 741.042969 C 913.726562 741.039062 914.214844 740.992188 914.699219 740.894531 C 915.183594 740.796875 915.65625 740.65625 916.109375 740.464844 C 916.566406 740.277344 917 740.042969 917.410156 739.769531 C 917.820312 739.496094 918.199219 739.183594 918.550781 738.832031 C 918.898438 738.484375 919.210938 738.105469 919.484375 737.695312 C 919.757812 737.285156 919.992188 736.851562 920.179688 736.394531 C 920.371094 735.9375 920.511719 735.46875 920.609375 734.984375 C 920.707031 734.5 920.757812 734.011719 920.757812 733.519531 L 920.757812 592.222656 C 920.757812 591.730469 920.707031 591.238281 920.609375 590.753906 C 920.511719 590.273438 920.371094 589.800781 920.179688 589.347656 C 919.992188 588.890625 919.757812 588.457031 919.484375 588.046875 C 919.210938 587.636719 918.898438 587.257812 918.550781 586.90625 C 918.199219 586.558594 917.820312 586.246094 917.410156 585.972656 C 917 585.695312 916.566406 585.464844 916.109375 585.277344 C 915.65625 585.085938 915.183594 584.941406 914.699219 584.847656 C 914.214844 584.75 913.726562 584.699219 913.234375 584.699219 Z M 456.996094 671.902344 L 492.53125 671.902344 L 492.53125 666.066406 C 492.527344 661.894531 493.148438 657.816406 494.398438 653.839844 L 456.996094 653.839844 Z M 456.996094 671.902344" fill="#2ecc71"/></g><g transform="matrix(1, 0, 0, 1, 364, 739)"><g clip-path="url(#3f321f8cd6)"><g fill-opacity="1" fill="#ffffff"><g transform="translate(0.964639, 155.046289)"><g><path d="M 60.96875 1.640625 C 50.625 1.640625 41.359375 -0.722656 33.171875 -5.453125 C 24.984375 -10.179688 18.535156 -16.988281 13.828125 -25.875 C 9.128906 -34.769531 6.78125 -45.476562 6.78125 -58 C 6.78125 -70.570312 9.144531 -81.316406 13.875 -90.234375 C 18.601562 -99.148438 25.070312 -105.972656 33.28125 -110.703125 C 41.5 -115.429688 50.726562 -117.796875 60.96875 -117.796875 C 67.613281 -117.796875 73.804688 -116.859375 79.546875 -114.984375 C 85.296875 -113.117188 90.378906 -110.390625 94.796875 -106.796875 C 99.210938 -103.210938 102.835938 -98.847656 105.671875 -93.703125 C 108.503906 -88.554688 110.363281 -82.710938 111.25 -76.171875 L 87.15625 -76.171875 C 86.582031 -79.390625 85.539062 -82.269531 84.03125 -84.8125 C 82.53125 -87.363281 80.660156 -89.519531 78.421875 -91.28125 C 76.191406 -93.050781 73.644531 -94.390625 70.78125 -95.296875 C 67.925781 -96.210938 64.8125 -96.671875 61.4375 -96.671875 C 55.300781 -96.671875 49.929688 -95.132812 45.328125 -92.0625 C 40.734375 -89 37.1875 -84.59375 34.6875 -78.84375 C 32.195312 -73.101562 30.953125 -66.15625 30.953125 -58 C 30.953125 -49.738281 32.210938 -42.734375 34.734375 -36.984375 C 37.253906 -31.242188 40.800781 -26.890625 45.375 -23.921875 C 49.945312 -20.960938 55.300781 -19.484375 61.4375 -19.484375 C 64.757812 -19.484375 67.847656 -19.953125 70.703125 -20.890625 C 73.566406 -21.828125 76.128906 -23.164062 78.390625 -24.90625 C 80.648438 -26.644531 82.53125 -28.785156 84.03125 -31.328125 C 85.539062 -33.878906 86.609375 -36.765625 87.234375 -39.984375 L 111.328125 -39.984375 C 110.597656 -34.328125 108.921875 -29.003906 106.296875 -24.015625 C 103.671875 -19.023438 100.1875 -14.59375 95.84375 -10.71875 C 91.507812 -6.84375 86.414062 -3.8125 80.5625 -1.625 C 74.71875 0.550781 68.1875 1.640625 60.96875 1.640625 Z M 60.96875 1.640625"/></g></g></g><g fill-opacity="1" fill="#ffffff"><g transform="translate(118.599979, 155.046289)"><g><path d="M 61.125 1.640625 C 50.832031 1.640625 41.578125 -0.722656 33.359375 -5.453125 C 25.148438 -10.179688 18.664062 -16.988281 13.90625 -25.875 C 9.15625 -34.769531 6.78125 -45.476562 6.78125 -58 C 6.78125 -70.570312 9.15625 -81.316406 13.90625 -90.234375 C 18.664062 -99.148438 25.148438 -105.972656 33.359375 -110.703125 C 41.578125 -115.429688 50.832031 -117.796875 61.125 -117.796875 C 71.40625 -117.796875 80.640625 -115.429688 88.828125 -110.703125 C 97.015625 -105.972656 103.484375 -99.148438 108.234375 -90.234375 C 112.992188 -81.316406 115.375 -70.570312 115.375 -58 C 115.375 -45.476562 112.992188 -34.757812 108.234375 -25.84375 C 103.484375 -16.925781 97.015625 -10.113281 88.828125 -5.40625 C 80.640625 -0.707031 71.40625 1.640625 61.125 1.640625 Z M 61.125 -19.484375 C 67.144531 -19.484375 72.414062 -20.960938 76.9375 -23.921875 C 81.457031 -26.890625 84.976562 -31.242188 87.5 -36.984375 C 90.019531 -42.734375 91.28125 -49.738281 91.28125 -58 C 91.28125 -66.3125 90.019531 -73.351562 87.5 -79.125 C 84.976562 -84.894531 81.457031 -89.257812 76.9375 -92.21875 C 72.414062 -95.1875 67.144531 -96.671875 61.125 -96.671875 C 55.144531 -96.671875 49.878906 -95.175781 45.328125 -92.1875 C 40.785156 -89.195312 37.253906 -84.828125 34.734375 -79.078125 C 32.210938 -73.335938 30.953125 -66.3125 30.953125 -58 C 30.953125 -49.738281 32.210938 -42.75 34.734375 -37.03125 C 37.253906 -31.3125 40.785156 -26.957031 45.328125 -23.96875 C 49.878906 -20.976562 55.144531 -19.484375 61.125 -19.484375 Z M 61.125 -19.484375"/></g></g></g><g fill-opacity="1" fill="#ffffff"><g transform="translate(234.13023, 155.046289)"><g><path d="M 3.125 0 L 43.109375 -116.15625 L 74.140625 -116.15625 L 114.90625 0 L 88.40625 0 L 69.84375 -56.125 C 67.613281 -63.40625 65.34375 -71.265625 63.03125 -79.703125 C 60.71875 -88.148438 58.257812 -97.441406 55.65625 -107.578125 L 61.125 -107.578125 C 58.570312 -97.441406 56.203125 -88.125 54.015625 -79.625 C 51.835938 -71.132812 49.65625 -63.300781 47.46875 -56.125 L 29.3125 0 Z M 28.140625 -26.578125 L 28.140625 -45.375 L 89.890625 -45.375 L 89.890625 -26.578125 Z M 28.140625 -26.578125"/></g></g></g><g fill-opacity="1" fill="#ffffff"><g transform="translate(345.528823, 155.046289)"><g><path d="M 60.96875 1.640625 C 50.625 1.640625 41.359375 -0.722656 33.171875 -5.453125 C 24.984375 -10.179688 18.535156 -16.988281 13.828125 -25.875 C 9.128906 -34.769531 6.78125 -45.476562 6.78125 -58 C 6.78125 -70.570312 9.144531 -81.316406 13.875 -90.234375 C 18.601562 -99.148438 25.070312 -105.972656 33.28125 -110.703125 C 41.5 -115.429688 50.726562 -117.796875 60.96875 -117.796875 C 67.613281 -117.796875 73.804688 -116.859375 79.546875 -114.984375 C 85.296875 -113.117188 90.378906 -110.390625 94.796875 -106.796875 C 99.210938 -103.210938 102.835938 -98.847656 105.671875 -93.703125 C 108.503906 -88.554688 110.363281 -82.710938 111.25 -76.171875 L 87.15625 -76.171875 C 86.582031 -79.390625 85.539062 -82.269531 84.03125 -84.8125 C 82.53125 -87.363281 80.660156 -89.519531 78.421875 -91.28125 C 76.191406 -93.050781 73.644531 -94.390625 70.78125 -95.296875 C 67.925781 -96.210938 64.8125 -96.671875 61.4375 -96.671875 C 55.300781 -96.671875 49.929688 -95.132812 45.328125 -92.0625 C 40.734375 -89 37.1875 -84.59375 34.6875 -78.84375 C 32.195312 -73.101562 30.953125 -66.15625 30.953125 -58 C 30.953125 -49.738281 32.210938 -42.734375 34.734375 -36.984375 C 37.253906 -31.242188 40.800781 -26.890625 45.375 -23.921875 C 49.945312 -20.960938 55.300781 -19.484375 61.4375 -19.484375 C 64.757812 -19.484375 67.847656 -19.953125 70.703125 -20.890625 C 73.566406 -21.828125 76.128906 -23.164062 78.390625 -24.90625 C 80.648438 -26.644531 82.53125 -28.785156 84.03125 -31.328125 C 85.539062 -33.878906 86.609375 -36.765625 87.234375 -39.984375 L 111.328125 -39.984375 C 110.597656 -34.328125 108.921875 -29.003906 106.296875 -24.015625 C 103.671875 -19.023438 100.1875 -14.59375 95.84375 -10.71875 C 91.507812 -6.84375 86.414062 -3.8125 80.5625 -1.625 C 74.71875 0.550781 68.1875 1.640625 60.96875 1.640625 Z M 60.96875 1.640625"/></g></g></g><g fill-opacity="1" fill="#ffffff"><g transform="translate(463.164163, 155.046289)"><g><path d="M 10.0625 0 L 10.0625 -116.15625 L 33.90625 -116.15625 L 33.90625 -69.296875 L 84.265625 -69.296875 L 84.265625 -116.15625 L 108.125 -116.15625 L 108.125 0 L 84.265625 0 L 84.265625 -49.34375 L 33.90625 -49.34375 L 33.90625 0 Z M 10.0625 0"/></g></g></g><g fill-opacity="1" fill="#ffffff"><g transform="translate(581.345167, 155.046289)"><g><path d="M 10.0625 0 L 10.0625 -116.15625 L 33.90625 -116.15625 L 33.90625 -19.953125 L 84.65625 -19.953125 L 84.65625 0 Z M 10.0625 0"/></g></g></g><g fill-opacity="1" fill="#ffffff"><g transform="translate(655.792333, 155.046289)"><g><path d="M 46.15625 0 L 46.15625 -43.65625 L 3.125 -116.15625 L 30.953125 -116.15625 L 50.59375 -80.21875 C 52.519531 -76.6875 54.285156 -73.175781 55.890625 -69.6875 C 57.503906 -66.207031 59.144531 -62.179688 60.8125 -57.609375 L 55.578125 -57.609375 C 57.191406 -62.234375 58.765625 -66.300781 60.296875 -69.8125 C 61.828125 -73.320312 63.53125 -76.789062 65.40625 -80.21875 L 84.421875 -116.15625 L 112.109375 -116.15625 L 69.765625 -43.65625 L 69.765625 0 Z M 46.15625 0"/></g></g></g></g></g></svg>