<svg version="1.0" preserveAspectRatio="xMidYMid meet" viewBox="503.7570303712036 304.559997368 430.8661417322835 184.679998404" zoomAndPan="magnify" xmlns:xlink="http://www.w3.org/1999/xlink" xmlns="http://www.w3.org/2000/svg" style="max-height: 500px" width="430.8661417322835" height="184.679998404"><defs><g/><clipPath id="2ae0671b0b"><path clip-rule="nonzero" d="M 0.835938 1.34375 L 319.164062 1.34375 L 319.164062 120.007812 L 0.835938 120.007812 Z M 0.835938 1.34375"/></clipPath><clipPath id="20130638d0"><path clip-rule="nonzero" d="M 3 90 L 419.800781 90 L 419.800781 196 L 3 196 Z M 3 90"/></clipPath><clipPath id="c3d5e5d04a"><rect height="106" y="0" width="417" x="0"/></clipPath><clipPath id="5615ea0944"><path clip-rule="nonzero" d="M 168.933594 90.714844 L 179.828125 90.714844 L 179.828125 102.15625 L 168.933594 102.15625 Z M 168.933594 90.714844"/></clipPath><clipPath id="c9b10abcbb"><path clip-rule="nonzero" d="M 175.867188 101.683594 C 170.964844 97.878906 170.480469 97.390625 170.035156 96.660156 C 169.550781 95.769531 169.023438 94.515625 169.023438 93.585938 C 169.0625 92.773438 169.46875 91.84375 169.914062 91.355469 C 170.320312 90.953125 170.925781 90.789062 171.453125 90.75 C 171.980469 90.707031 172.628906 90.828125 173.03125 91.195312 C 173.558594 91.597656 174.164062 92.613281 174.164062 93.339844 C 174.164062 94.03125 173.640625 95.042969 173.03125 95.445312 C 172.464844 95.851562 171.289062 95.972656 170.640625 95.730469 C 169.996094 95.445312 169.265625 94.515625 169.0625 93.867188 C 168.902344 93.339844 169.023438 92.691406 169.265625 92.246094 C 169.46875 91.761719 169.871094 91.277344 170.398438 91.03125 C 171.007812 90.789062 172.179688 90.789062 172.789062 91.03125 C 173.316406 91.277344 173.597656 91.722656 173.921875 92.246094 C 174.367188 92.894531 174.367188 93.949219 175.015625 94.757812 C 175.867188 95.851562 178.417969 96.984375 179.148438 97.957031 C 179.59375 98.566406 179.796875 99.09375 179.796875 99.617188 C 179.796875 100.183594 179.550781 100.875 179.148438 101.277344 C 178.78125 101.683594 178.136719 102.046875 177.609375 102.128906 C 177.042969 102.171875 175.867188 101.683594 175.867188 101.683594"/></clipPath><clipPath id="0556acf447"><path clip-rule="nonzero" d="M 0.933594 0.714844 L 11.800781 0.714844 L 11.800781 12.15625 L 0.933594 12.15625 Z M 0.933594 0.714844"/></clipPath><clipPath id="e827dbc242"><path clip-rule="nonzero" d="M 7.867188 11.683594 C 2.964844 7.878906 2.480469 7.390625 2.035156 6.660156 C 1.550781 5.769531 1.023438 4.515625 1.023438 3.585938 C 1.0625 2.773438 1.46875 1.84375 1.914062 1.355469 C 2.320312 0.953125 2.925781 0.789062 3.453125 0.75 C 3.980469 0.707031 4.628906 0.828125 5.03125 1.195312 C 5.558594 1.597656 6.164062 2.613281 6.164062 3.339844 C 6.164062 4.03125 5.640625 5.042969 5.03125 5.445312 C 4.464844 5.851562 3.289062 5.972656 2.640625 5.730469 C 1.996094 5.445312 1.265625 4.515625 1.0625 3.867188 C 0.902344 3.339844 1.023438 2.691406 1.265625 2.246094 C 1.46875 1.761719 1.871094 1.277344 2.398438 1.03125 C 3.007812 0.789062 4.179688 0.789062 4.789062 1.03125 C 5.316406 1.277344 5.597656 1.722656 5.921875 2.246094 C 6.367188 2.894531 6.367188 3.949219 7.015625 4.757812 C 7.867188 5.851562 10.417969 6.984375 11.148438 7.957031 C 11.59375 8.566406 11.796875 9.09375 11.796875 9.617188 C 11.796875 10.183594 11.550781 10.875 11.148438 11.277344 C 10.78125 11.683594 10.136719 12.046875 9.609375 12.128906 C 9.042969 12.171875 7.867188 11.683594 7.867188 11.683594"/></clipPath><clipPath id="4deb8c0e55"><rect height="13" y="0" width="12" x="0"/></clipPath><clipPath id="b4762bf689"><rect height="321" y="0" width="420" x="0"/></clipPath></defs><g transform="matrix(1, 0, 0, 1, 509, 307)"><g clip-path="url(#b4762bf689)"><g clip-path="url(#2ae0671b0b)"><path fill-rule="nonzero" fill-opacity="1" d="M 16.058594 20.941406 L 16.058594 65.601562 C 16.058594 65.863281 16.03125 66.125 15.980469 66.382812 C 15.925781 66.644531 15.851562 66.894531 15.75 67.136719 C 15.648438 67.382812 15.523438 67.613281 15.378906 67.832031 C 15.230469 68.050781 15.0625 68.253906 14.878906 68.441406 C 14.691406 68.628906 14.488281 68.792969 14.269531 68.941406 C 14.050781 69.085938 13.816406 69.210938 13.574219 69.3125 C 13.332031 69.414062 13.078125 69.492188 12.820312 69.542969 C 12.5625 69.59375 12.300781 69.621094 12.035156 69.621094 L 4.855469 69.621094 C 4.59375 69.621094 4.332031 69.59375 4.074219 69.542969 C 3.8125 69.492188 3.5625 69.414062 3.320312 69.3125 C 3.074219 69.210938 2.84375 69.089844 2.625 68.941406 C 2.40625 68.792969 2.203125 68.628906 2.015625 68.441406 C 1.828125 68.253906 1.664062 68.050781 1.515625 67.832031 C 1.367188 67.613281 1.246094 67.382812 1.144531 67.136719 C 1.042969 66.894531 0.964844 66.644531 0.914062 66.382812 C 0.863281 66.125 0.835938 65.863281 0.835938 65.601562 L 0.835938 20.941406 C 0.835938 20.679688 0.863281 20.417969 0.914062 20.160156 C 0.964844 19.898438 1.042969 19.648438 1.144531 19.40625 C 1.246094 19.160156 1.371094 18.929688 1.515625 18.710938 C 1.664062 18.492188 1.828125 18.289062 2.015625 18.101562 C 2.203125 17.914062 2.40625 17.75 2.625 17.601562 C 2.84375 17.453125 3.074219 17.332031 3.320312 17.230469 C 3.5625 17.128906 3.8125 17.050781 4.074219 17 C 4.332031 16.949219 4.59375 16.921875 4.855469 16.921875 L 12.035156 16.921875 C 12.300781 16.921875 12.5625 16.949219 12.820312 17 C 13.078125 17.050781 13.332031 17.128906 13.574219 17.230469 C 13.816406 17.332031 14.050781 17.453125 14.269531 17.601562 C 14.488281 17.75 14.691406 17.914062 14.878906 18.101562 C 15.0625 18.289062 15.230469 18.492188 15.378906 18.710938 C 15.523438 18.929688 15.648438 19.160156 15.75 19.40625 C 15.851562 19.648438 15.925781 19.898438 15.980469 20.160156 C 16.03125 20.417969 16.058594 20.679688 16.058594 20.941406 Z M 36.640625 1.488281 L 29.460938 1.488281 C 29.199219 1.488281 28.9375 1.515625 28.675781 1.566406 C 28.417969 1.617188 28.167969 1.695312 27.921875 1.796875 C 27.679688 1.898438 27.449219 2.019531 27.230469 2.167969 C 27.007812 2.3125 26.808594 2.480469 26.621094 2.667969 C 26.433594 2.855469 26.265625 3.058594 26.121094 3.277344 C 25.972656 3.496094 25.847656 3.726562 25.75 3.972656 C 25.648438 4.214844 25.570312 4.464844 25.519531 4.722656 C 25.464844 4.984375 25.441406 5.246094 25.441406 5.507812 L 25.441406 81.035156 C 25.441406 81.296875 25.464844 81.558594 25.519531 81.816406 C 25.570312 82.078125 25.648438 82.328125 25.75 82.570312 C 25.847656 82.816406 25.972656 83.046875 26.121094 83.265625 C 26.265625 83.484375 26.433594 83.6875 26.621094 83.875 C 26.804688 84.0625 27.007812 84.230469 27.230469 84.375 C 27.449219 84.523438 27.679688 84.644531 27.921875 84.746094 C 28.167969 84.847656 28.417969 84.925781 28.675781 84.976562 C 28.9375 85.027344 29.199219 85.054688 29.460938 85.054688 L 36.640625 85.054688 C 36.90625 85.054688 37.164062 85.027344 37.425781 84.976562 C 37.683594 84.925781 37.933594 84.847656 38.179688 84.746094 C 38.421875 84.644531 38.652344 84.523438 38.871094 84.375 C 39.09375 84.230469 39.296875 84.0625 39.480469 83.875 C 39.667969 83.6875 39.835938 83.484375 39.980469 83.265625 C 40.128906 83.046875 40.253906 82.816406 40.355469 82.570312 C 40.453125 82.328125 40.53125 82.078125 40.582031 81.816406 C 40.636719 81.558594 40.660156 81.296875 40.660156 81.035156 L 40.660156 5.507812 C 40.660156 5.246094 40.636719 4.984375 40.582031 4.722656 C 40.53125 4.464844 40.453125 4.214844 40.355469 3.972656 C 40.253906 3.726562 40.128906 3.496094 39.980469 3.277344 C 39.835938 3.058594 39.667969 2.855469 39.480469 2.667969 C 39.296875 2.480469 39.09375 2.3125 38.871094 2.167969 C 38.652344 2.019531 38.421875 1.898438 38.179688 1.796875 C 37.933594 1.695312 37.683594 1.617188 37.425781 1.566406 C 37.164062 1.515625 36.90625 1.488281 36.640625 1.488281 Z M 232.523438 32.546875 C 231.707031 32.546875 230.898438 32.628906 230.097656 32.785156 C 229.296875 32.945312 228.519531 33.183594 227.765625 33.492188 C 227.011719 33.804688 226.292969 34.1875 225.617188 34.644531 C 224.9375 35.097656 224.308594 35.613281 223.734375 36.1875 C 223.15625 36.765625 222.640625 37.394531 222.1875 38.074219 C 221.734375 38.75 221.351562 39.46875 221.039062 40.222656 C 220.726562 40.976562 220.488281 41.753906 220.332031 42.554688 C 220.171875 43.355469 220.089844 44.164062 220.089844 44.980469 L 220.089844 103.066406 L 185.929688 132.691406 L 137.445312 132.691406 L 103.28125 103.066406 L 103.28125 44.980469 C 103.289062 44.160156 103.214844 43.347656 103.058594 42.539062 C 102.90625 41.734375 102.671875 40.953125 102.363281 40.195312 C 102.054688 39.433594 101.671875 38.710938 101.21875 38.027344 C 100.765625 37.34375 100.25 36.710938 99.675781 36.128906 C 99.097656 35.546875 98.46875 35.027344 97.785156 34.570312 C 97.105469 34.113281 96.386719 33.726562 95.628906 33.410156 C 94.871094 33.097656 94.09375 32.859375 93.289062 32.699219 C 92.484375 32.539062 91.671875 32.457031 90.851562 32.457031 C 90.03125 32.457031 89.21875 32.539062 88.414062 32.699219 C 87.613281 32.859375 86.832031 33.097656 86.074219 33.410156 C 85.316406 33.726562 84.597656 34.113281 83.917969 34.570312 C 83.238281 35.027344 82.609375 35.546875 82.03125 36.128906 C 81.453125 36.710938 80.9375 37.34375 80.484375 38.027344 C 80.03125 38.710938 79.652344 39.433594 79.339844 40.195312 C 79.03125 40.953125 78.800781 41.734375 78.644531 42.539062 C 78.488281 43.347656 78.414062 44.160156 78.421875 44.980469 L 78.421875 108.691406 C 78.421875 109.664062 78.53125 110.625 78.757812 111.570312 C 78.980469 112.515625 79.3125 113.425781 79.753906 114.292969 C 80.191406 115.160156 80.722656 115.96875 81.351562 116.710938 C 81.980469 117.453125 82.683594 118.113281 83.46875 118.691406 L 127.730469 157.066406 L 127.730469 223.003906 L 107.515625 298.445312 C 107.371094 298.980469 107.253906 299.523438 107.164062 300.074219 C 107.070312 300.621094 107.007812 301.171875 106.972656 301.726562 C 106.9375 302.28125 106.925781 302.839844 106.945312 303.394531 C 106.964844 303.949219 107.007812 304.503906 107.082031 305.054688 C 107.152344 305.605469 107.253906 306.152344 107.378906 306.695312 C 107.503906 307.234375 107.660156 307.769531 107.835938 308.296875 C 108.015625 308.824219 108.21875 309.339844 108.449219 309.847656 C 108.679688 310.351562 108.933594 310.847656 109.210938 311.328125 C 109.488281 311.808594 109.789062 312.277344 110.113281 312.726562 C 110.4375 313.179688 110.78125 313.617188 111.148438 314.035156 C 111.515625 314.453125 111.902344 314.851562 112.308594 315.230469 C 112.714844 315.609375 113.136719 315.96875 113.578125 316.308594 C 114.019531 316.648438 114.476562 316.964844 114.949219 317.257812 C 115.421875 317.550781 115.90625 317.820312 116.40625 318.066406 C 116.902344 318.3125 117.414062 318.535156 117.933594 318.730469 C 118.453125 318.925781 118.984375 319.09375 119.519531 319.238281 C 120.058594 319.382812 120.601562 319.5 121.148438 319.589844 C 121.699219 319.679688 122.25 319.746094 122.804688 319.78125 C 123.359375 319.816406 123.914062 319.828125 124.472656 319.808594 C 125.027344 319.789062 125.582031 319.746094 126.132812 319.671875 C 126.683594 319.601562 127.230469 319.5 127.769531 319.375 C 128.3125 319.246094 128.847656 319.09375 129.375 318.917969 C 129.898438 318.738281 130.417969 318.535156 130.921875 318.304688 C 131.429688 318.074219 131.921875 317.820312 132.40625 317.542969 C 132.886719 317.265625 133.351562 316.964844 133.804688 316.640625 C 134.257812 316.316406 134.691406 315.972656 135.109375 315.605469 C 135.527344 315.238281 135.929688 314.851562 136.308594 314.445312 C 136.6875 314.039062 137.046875 313.617188 137.386719 313.175781 C 137.722656 312.734375 138.039062 312.277344 138.335938 311.804688 C 138.628906 311.332031 138.898438 310.847656 139.144531 310.347656 C 139.390625 309.847656 139.609375 309.339844 139.804688 308.820312 C 140.003906 308.300781 140.171875 307.769531 140.316406 307.234375 L 161.6875 227.472656 L 183.058594 307.230469 C 183.203125 307.769531 183.371094 308.296875 183.566406 308.816406 C 183.765625 309.339844 183.984375 309.847656 184.230469 310.347656 C 184.476562 310.84375 184.746094 311.332031 185.039062 311.804688 C 185.332031 312.277344 185.648438 312.730469 185.988281 313.171875 C 186.328125 313.613281 186.6875 314.039062 187.066406 314.445312 C 187.445312 314.851562 187.847656 315.234375 188.265625 315.601562 C 188.683594 315.96875 189.117188 316.316406 189.570312 316.636719 C 190.019531 316.960938 190.488281 317.261719 190.96875 317.542969 C 191.449219 317.820312 191.945312 318.074219 192.453125 318.304688 C 192.957031 318.53125 193.476562 318.738281 194 318.914062 C 194.527344 319.09375 195.0625 319.246094 195.605469 319.371094 C 196.144531 319.5 196.691406 319.597656 197.242188 319.671875 C 197.792969 319.742188 198.347656 319.789062 198.902344 319.808594 C 199.460938 319.824219 200.015625 319.816406 200.570312 319.78125 C 201.125 319.742188 201.675781 319.679688 202.226562 319.589844 C 202.773438 319.5 203.316406 319.382812 203.855469 319.238281 C 204.390625 319.09375 204.917969 318.925781 205.441406 318.726562 C 205.960938 318.53125 206.46875 318.3125 206.96875 318.066406 C 207.46875 317.820312 207.953125 317.550781 208.425781 317.257812 C 208.898438 316.960938 209.355469 316.644531 209.796875 316.308594 C 210.238281 315.96875 210.660156 315.609375 211.066406 315.230469 C 211.472656 314.847656 211.859375 314.449219 212.226562 314.03125 C 212.589844 313.613281 212.9375 313.179688 213.261719 312.726562 C 213.585938 312.273438 213.886719 311.808594 214.164062 311.328125 C 214.441406 310.84375 214.695312 310.351562 214.925781 309.84375 C 215.15625 309.339844 215.359375 308.820312 215.539062 308.292969 C 215.714844 307.769531 215.867188 307.234375 215.996094 306.691406 C 216.121094 306.152344 216.21875 305.605469 216.292969 305.054688 C 216.367188 304.5 216.410156 303.949219 216.429688 303.390625 C 216.449219 302.835938 216.4375 302.28125 216.402344 301.726562 C 216.367188 301.171875 216.300781 300.621094 216.210938 300.070312 C 216.121094 299.523438 216.003906 298.980469 215.859375 298.441406 L 195.644531 223.003906 L 195.644531 157.066406 L 239.90625 118.691406 C 240.691406 118.113281 241.394531 117.453125 242.023438 116.710938 C 242.652344 115.96875 243.183594 115.160156 243.621094 114.292969 C 244.0625 113.425781 244.390625 112.515625 244.617188 111.570312 C 244.84375 110.625 244.953125 109.664062 244.953125 108.691406 L 244.953125 44.980469 C 244.953125 44.164062 244.875 43.355469 244.714844 42.554688 C 244.554688 41.753906 244.320312 40.976562 244.007812 40.222656 C 243.695312 39.46875 243.3125 38.75 242.859375 38.074219 C 242.40625 37.394531 241.890625 36.765625 241.3125 36.1875 C 240.734375 35.613281 240.105469 35.097656 239.429688 34.644531 C 238.75 34.1875 238.035156 33.804688 237.28125 33.492188 C 236.523438 33.179688 235.746094 32.945312 234.949219 32.785156 C 234.148438 32.628906 233.339844 32.546875 232.523438 32.546875 Z M 112.664062 48.101562 L 210.707031 48.101562 L 210.707031 44.980469 C 210.707031 42.75 211.039062 40.570312 211.707031 38.445312 L 111.667969 38.445312 C 112.335938 40.570312 112.667969 42.75 112.664062 44.980469 Z M 318.515625 16.921875 L 311.339844 16.921875 C 311.074219 16.921875 310.8125 16.949219 310.554688 17 C 310.296875 17.050781 310.042969 17.128906 309.800781 17.230469 C 309.558594 17.332031 309.324219 17.453125 309.105469 17.601562 C 308.886719 17.75 308.683594 17.914062 308.496094 18.101562 C 308.308594 18.289062 308.144531 18.492188 307.996094 18.710938 C 307.851562 18.929688 307.726562 19.160156 307.625 19.40625 C 307.523438 19.648438 307.445312 19.898438 307.394531 20.160156 C 307.34375 20.417969 307.316406 20.679688 307.316406 20.941406 L 307.316406 65.601562 C 307.316406 65.863281 307.34375 66.125 307.394531 66.382812 C 307.445312 66.644531 307.523438 66.894531 307.625 67.136719 C 307.726562 67.382812 307.851562 67.613281 307.996094 67.832031 C 308.144531 68.050781 308.308594 68.253906 308.496094 68.441406 C 308.683594 68.628906 308.886719 68.792969 309.105469 68.941406 C 309.324219 69.089844 309.554688 69.210938 309.800781 69.3125 C 310.042969 69.414062 310.296875 69.492188 310.554688 69.542969 C 310.8125 69.59375 311.074219 69.621094 311.339844 69.621094 L 318.515625 69.621094 C 318.78125 69.621094 319.042969 69.59375 319.300781 69.542969 C 319.558594 69.492188 319.8125 69.414062 320.054688 69.3125 C 320.296875 69.210938 320.53125 69.089844 320.75 68.941406 C 320.96875 68.792969 321.171875 68.628906 321.359375 68.441406 C 321.546875 68.253906 321.710938 68.050781 321.859375 67.832031 C 322.003906 67.613281 322.128906 67.382812 322.230469 67.136719 C 322.332031 66.894531 322.410156 66.644531 322.460938 66.382812 C 322.511719 66.125 322.539062 65.863281 322.539062 65.601562 L 322.539062 20.941406 C 322.539062 20.679688 322.511719 20.417969 322.460938 20.160156 C 322.410156 19.898438 322.332031 19.648438 322.230469 19.40625 C 322.128906 19.160156 322.003906 18.929688 321.859375 18.710938 C 321.710938 18.492188 321.546875 18.289062 321.359375 18.101562 C 321.171875 17.914062 320.96875 17.75 320.75 17.601562 C 320.53125 17.453125 320.296875 17.332031 320.054688 17.230469 C 319.8125 17.128906 319.558594 17.050781 319.300781 17 C 319.042969 16.949219 318.78125 16.921875 318.515625 16.921875 Z M 135.003906 92.789062 C 135.003906 93.664062 135.046875 94.535156 135.132812 95.40625 C 135.214844 96.273438 135.34375 97.140625 135.515625 97.996094 C 135.6875 98.851562 135.898438 99.699219 136.152344 100.535156 C 136.40625 101.371094 136.699219 102.195312 137.035156 103.003906 C 137.367188 103.808594 137.742188 104.597656 138.152344 105.371094 C 138.566406 106.140625 139.015625 106.890625 139.5 107.617188 C 139.984375 108.34375 140.503906 109.042969 141.058594 109.71875 C 141.613281 110.394531 142.199219 111.042969 142.820312 111.660156 C 143.4375 112.277344 144.082031 112.863281 144.757812 113.417969 C 145.433594 113.972656 146.136719 114.492188 146.863281 114.976562 C 147.589844 115.464844 148.335938 115.914062 149.109375 116.324219 C 149.878906 116.738281 150.667969 117.109375 151.476562 117.445312 C 152.285156 117.777344 153.105469 118.074219 153.941406 118.328125 C 154.777344 118.582031 155.625 118.792969 156.480469 118.964844 C 157.339844 119.132812 158.203125 119.261719 159.070312 119.347656 C 159.941406 119.433594 160.8125 119.476562 161.6875 119.476562 C 162.5625 119.476562 163.433594 119.433594 164.304688 119.347656 C 165.171875 119.261719 166.035156 119.132812 166.894531 118.964844 C 167.75 118.792969 168.597656 118.582031 169.433594 118.328125 C 170.269531 118.074219 171.09375 117.777344 171.898438 117.445312 C 172.707031 117.109375 173.496094 116.738281 174.265625 116.324219 C 175.039062 115.914062 175.785156 115.464844 176.511719 114.980469 C 177.238281 114.492188 177.941406 113.972656 178.617188 113.417969 C 179.292969 112.863281 179.9375 112.277344 180.558594 111.660156 C 181.175781 111.042969 181.761719 110.394531 182.316406 109.71875 C 182.871094 109.042969 183.390625 108.34375 183.875 107.617188 C 184.363281 106.890625 184.808594 106.140625 185.222656 105.371094 C 185.632812 104.597656 186.007812 103.808594 186.34375 103.003906 C 186.675781 102.195312 186.96875 101.375 187.222656 100.535156 C 187.476562 99.699219 187.691406 98.855469 187.859375 97.996094 C 188.03125 97.140625 188.160156 96.277344 188.246094 95.40625 C 188.332031 94.535156 188.375 93.664062 188.375 92.789062 C 188.375 91.917969 188.332031 91.042969 188.246094 90.175781 C 188.160156 89.304688 188.03125 88.441406 187.859375 87.585938 C 187.691406 86.726562 187.476562 85.878906 187.222656 85.042969 C 186.96875 84.207031 186.675781 83.386719 186.339844 82.578125 C 186.007812 81.769531 185.632812 80.980469 185.222656 80.210938 C 184.808594 79.441406 184.359375 78.691406 183.875 77.964844 C 183.390625 77.238281 182.871094 76.535156 182.316406 75.863281 C 181.761719 75.1875 181.175781 74.539062 180.558594 73.921875 C 179.9375 73.304688 179.292969 72.714844 178.617188 72.164062 C 177.941406 71.609375 177.238281 71.085938 176.511719 70.601562 C 175.785156 70.117188 175.039062 69.667969 174.265625 69.257812 C 173.496094 68.84375 172.707031 68.472656 171.898438 68.136719 C 171.09375 67.800781 170.269531 67.507812 169.433594 67.253906 C 168.597656 67 167.75 66.789062 166.894531 66.617188 C 166.035156 66.449219 165.171875 66.320312 164.304688 66.234375 C 163.433594 66.148438 162.5625 66.105469 161.6875 66.105469 C 160.8125 66.105469 159.941406 66.148438 159.070312 66.234375 C 158.203125 66.320312 157.339844 66.449219 156.480469 66.617188 C 155.625 66.789062 154.777344 67 153.941406 67.253906 C 153.105469 67.507812 152.28125 67.800781 151.476562 68.136719 C 150.667969 68.472656 149.878906 68.84375 149.109375 69.257812 C 148.335938 69.667969 147.589844 70.117188 146.863281 70.601562 C 146.136719 71.089844 145.433594 71.609375 144.757812 72.164062 C 144.082031 72.71875 143.4375 73.304688 142.816406 73.921875 C 142.199219 74.539062 141.613281 75.1875 141.058594 75.863281 C 140.503906 76.539062 139.984375 77.238281 139.5 77.964844 C 139.015625 78.691406 138.566406 79.441406 138.152344 80.210938 C 137.742188 80.980469 137.367188 81.769531 137.035156 82.578125 C 136.699219 83.386719 136.40625 84.207031 136.152344 85.042969 C 135.898438 85.878906 135.6875 86.726562 135.515625 87.585938 C 135.34375 88.441406 135.214844 89.304688 135.132812 90.175781 C 135.046875 91.042969 135.003906 91.917969 135.003906 92.789062 Z M 254.335938 44.980469 L 254.335938 48.101562 L 273.328125 48.101562 L 273.328125 38.445312 L 253.339844 38.445312 C 254.003906 40.570312 254.339844 42.75 254.335938 44.980469 Z M 293.914062 1.488281 L 286.734375 1.488281 C 286.46875 1.488281 286.207031 1.515625 285.949219 1.566406 C 285.691406 1.617188 285.4375 1.695312 285.195312 1.796875 C 284.953125 1.898438 284.71875 2.019531 284.5 2.167969 C 284.28125 2.3125 284.078125 2.480469 283.890625 2.667969 C 283.707031 2.855469 283.539062 3.058594 283.390625 3.277344 C 283.246094 3.496094 283.121094 3.726562 283.019531 3.972656 C 282.917969 4.214844 282.84375 4.464844 282.789062 4.722656 C 282.738281 4.984375 282.710938 5.246094 282.710938 5.507812 L 282.710938 81.035156 C 282.710938 81.296875 282.738281 81.558594 282.789062 81.816406 C 282.84375 82.078125 282.917969 82.328125 283.019531 82.570312 C 283.121094 82.816406 283.246094 83.046875 283.390625 83.265625 C 283.539062 83.484375 283.707031 83.6875 283.890625 83.875 C 284.078125 84.0625 284.28125 84.230469 284.5 84.375 C 284.71875 84.523438 284.953125 84.644531 285.195312 84.746094 C 285.4375 84.847656 285.691406 84.925781 285.949219 84.976562 C 286.207031 85.027344 286.46875 85.054688 286.734375 85.054688 L 293.914062 85.054688 C 294.175781 85.054688 294.4375 85.027344 294.695312 84.976562 C 294.957031 84.925781 295.207031 84.847656 295.449219 84.746094 C 295.695312 84.644531 295.925781 84.523438 296.144531 84.375 C 296.363281 84.230469 296.566406 84.0625 296.753906 83.875 C 296.941406 83.6875 297.109375 83.484375 297.253906 83.265625 C 297.402344 83.046875 297.523438 82.816406 297.625 82.570312 C 297.726562 82.328125 297.804688 82.078125 297.855469 81.816406 C 297.90625 81.558594 297.933594 81.296875 297.933594 81.035156 L 297.933594 5.507812 C 297.933594 5.246094 297.90625 4.984375 297.855469 4.722656 C 297.804688 4.464844 297.726562 4.214844 297.625 3.972656 C 297.523438 3.726562 297.402344 3.496094 297.253906 3.277344 C 297.109375 3.058594 296.941406 2.855469 296.753906 2.667969 C 296.566406 2.480469 296.363281 2.3125 296.144531 2.167969 C 295.925781 2.019531 295.695312 1.898438 295.449219 1.796875 C 295.207031 1.695312 294.957031 1.617188 294.695312 1.566406 C 294.4375 1.515625 294.175781 1.488281 293.914062 1.488281 Z M 50.042969 48.101562 L 69.039062 48.101562 L 69.039062 44.980469 C 69.035156 42.75 69.367188 40.570312 70.035156 38.445312 L 50.042969 38.445312 Z M 50.042969 48.101562" fill="#2ecc71"/></g><g clip-path="url(#20130638d0)"><g transform="matrix(1, 0, 0, 1, 3, 90)"><g clip-path="url(#c3d5e5d04a)"><g fill-opacity="1" fill="#ffffff"><g transform="translate(0.830838, 84.285047)"><g><path d="M 32.921875 0.890625 C 27.335938 0.890625 22.332031 -0.382812 17.90625 -2.9375 C 13.488281 -5.5 10.007812 -9.175781 7.46875 -13.96875 C 4.925781 -18.769531 3.65625 -24.554688 3.65625 -31.328125 C 3.65625 -38.117188 4.929688 -43.921875 7.484375 -48.734375 C 10.046875 -53.546875 13.539062 -57.226562 17.96875 -59.78125 C 22.40625 -62.332031 27.390625 -63.609375 32.921875 -63.609375 C 36.515625 -63.609375 39.859375 -63.101562 42.953125 -62.09375 C 46.054688 -61.082031 48.800781 -59.609375 51.1875 -57.671875 C 53.570312 -55.734375 55.53125 -53.375 57.0625 -50.59375 C 58.59375 -47.820312 59.597656 -44.664062 60.078125 -41.125 L 47.0625 -41.125 C 46.757812 -42.863281 46.195312 -44.421875 45.375 -45.796875 C 44.5625 -47.171875 43.550781 -48.335938 42.34375 -49.296875 C 41.144531 -50.253906 39.769531 -50.976562 38.21875 -51.46875 C 36.675781 -51.957031 34.992188 -52.203125 33.171875 -52.203125 C 29.859375 -52.203125 26.957031 -51.375 24.46875 -49.71875 C 21.988281 -48.0625 20.078125 -45.679688 18.734375 -42.578125 C 17.390625 -39.484375 16.71875 -35.734375 16.71875 -31.328125 C 16.71875 -26.859375 17.394531 -23.070312 18.75 -19.96875 C 20.113281 -16.875 22.03125 -14.523438 24.5 -12.921875 C 26.96875 -11.328125 29.859375 -10.53125 33.171875 -10.53125 C 34.972656 -10.53125 36.644531 -10.78125 38.1875 -11.28125 C 39.726562 -11.789062 41.109375 -12.515625 42.328125 -13.453125 C 43.546875 -14.390625 44.5625 -15.546875 45.375 -16.921875 C 46.195312 -18.296875 46.773438 -19.851562 47.109375 -21.59375 L 60.125 -21.59375 C 59.726562 -18.539062 58.820312 -15.664062 57.40625 -12.96875 C 55.988281 -10.269531 54.109375 -7.875 51.765625 -5.78125 C 49.421875 -3.695312 46.664062 -2.0625 43.5 -0.875 C 40.34375 0.300781 36.816406 0.890625 32.921875 0.890625 Z M 32.921875 0.890625"/></g></g></g><g fill-opacity="1" fill="#ffffff"><g transform="translate(64.353926, 84.285047)"><g><path d="M 33 0.890625 C 27.445312 0.890625 22.453125 -0.382812 18.015625 -2.9375 C 13.578125 -5.5 10.070312 -9.175781 7.5 -13.96875 C 4.9375 -18.769531 3.65625 -24.554688 3.65625 -31.328125 C 3.65625 -38.117188 4.9375 -43.921875 7.5 -48.734375 C 10.070312 -53.546875 13.578125 -57.226562 18.015625 -59.78125 C 22.453125 -62.332031 27.445312 -63.609375 33 -63.609375 C 38.5625 -63.609375 43.550781 -62.332031 47.96875 -59.78125 C 52.394531 -57.226562 55.890625 -53.546875 58.453125 -48.734375 C 61.023438 -43.921875 62.3125 -38.117188 62.3125 -31.328125 C 62.3125 -24.554688 61.023438 -18.765625 58.453125 -13.953125 C 55.890625 -9.140625 52.394531 -5.460938 47.96875 -2.921875 C 43.550781 -0.378906 38.5625 0.890625 33 0.890625 Z M 33 -10.53125 C 36.257812 -10.53125 39.109375 -11.328125 41.546875 -12.921875 C 43.992188 -14.523438 45.894531 -16.875 47.25 -19.96875 C 48.613281 -23.070312 49.296875 -26.859375 49.296875 -31.328125 C 49.296875 -35.816406 48.613281 -39.617188 47.25 -42.734375 C 45.894531 -45.847656 43.992188 -48.203125 41.546875 -49.796875 C 39.109375 -51.398438 36.257812 -52.203125 33 -52.203125 C 29.78125 -52.203125 26.941406 -51.394531 24.484375 -49.78125 C 22.023438 -48.164062 20.113281 -45.804688 18.75 -42.703125 C 17.394531 -39.609375 16.71875 -35.816406 16.71875 -31.328125 C 16.71875 -26.859375 17.394531 -23.078125 18.75 -19.984375 C 20.113281 -16.898438 22.023438 -14.550781 24.484375 -12.9375 C 26.941406 -11.332031 29.78125 -10.53125 33 -10.53125 Z M 33 -10.53125"/></g></g></g><g fill-opacity="1" fill="#ffffff"><g transform="translate(126.740267, 84.285047)"><g><path d="M 1.6875 0 L 23.28125 -62.734375 L 40.03125 -62.734375 L 62.046875 0 L 47.734375 0 L 37.71875 -30.3125 C 36.507812 -34.238281 35.28125 -38.484375 34.03125 -43.046875 C 32.78125 -47.609375 31.457031 -52.625 30.0625 -58.09375 L 33 -58.09375 C 31.625 -52.625 30.347656 -47.59375 29.171875 -43 C 27.992188 -38.414062 26.816406 -34.1875 25.640625 -30.3125 L 15.828125 0 Z M 15.203125 -14.359375 L 15.203125 -24.5 L 48.546875 -24.5 L 48.546875 -14.359375 Z M 15.203125 -14.359375"/></g></g></g><g fill-opacity="1" fill="#ffffff"><g transform="translate(186.895511, 84.285047)"><g><path d="M 32.921875 0.890625 C 27.335938 0.890625 22.332031 -0.382812 17.90625 -2.9375 C 13.488281 -5.5 10.007812 -9.175781 7.46875 -13.96875 C 4.925781 -18.769531 3.65625 -24.554688 3.65625 -31.328125 C 3.65625 -38.117188 4.929688 -43.921875 7.484375 -48.734375 C 10.046875 -53.546875 13.539062 -57.226562 17.96875 -59.78125 C 22.40625 -62.332031 27.390625 -63.609375 32.921875 -63.609375 C 36.515625 -63.609375 39.859375 -63.101562 42.953125 -62.09375 C 46.054688 -61.082031 48.800781 -59.609375 51.1875 -57.671875 C 53.570312 -55.734375 55.53125 -53.375 57.0625 -50.59375 C 58.59375 -47.820312 59.597656 -44.664062 60.078125 -41.125 L 47.0625 -41.125 C 46.757812 -42.863281 46.195312 -44.421875 45.375 -45.796875 C 44.5625 -47.171875 43.550781 -48.335938 42.34375 -49.296875 C 41.144531 -50.253906 39.769531 -50.976562 38.21875 -51.46875 C 36.675781 -51.957031 34.992188 -52.203125 33.171875 -52.203125 C 29.859375 -52.203125 26.957031 -51.375 24.46875 -49.71875 C 21.988281 -48.0625 20.078125 -45.679688 18.734375 -42.578125 C 17.390625 -39.484375 16.71875 -35.734375 16.71875 -31.328125 C 16.71875 -26.859375 17.394531 -23.070312 18.75 -19.96875 C 20.113281 -16.875 22.03125 -14.523438 24.5 -12.921875 C 26.96875 -11.328125 29.859375 -10.53125 33.171875 -10.53125 C 34.972656 -10.53125 36.644531 -10.78125 38.1875 -11.28125 C 39.726562 -11.789062 41.109375 -12.515625 42.328125 -13.453125 C 43.546875 -14.390625 44.5625 -15.546875 45.375 -16.921875 C 46.195312 -18.296875 46.773438 -19.851562 47.109375 -21.59375 L 60.125 -21.59375 C 59.726562 -18.539062 58.820312 -15.664062 57.40625 -12.96875 C 55.988281 -10.269531 54.109375 -7.875 51.765625 -5.78125 C 49.421875 -3.695312 46.664062 -2.0625 43.5 -0.875 C 40.34375 0.300781 36.816406 0.890625 32.921875 0.890625 Z M 32.921875 0.890625"/></g></g></g><g fill-opacity="1" fill="#ffffff"><g transform="translate(250.418599, 84.285047)"><g><path d="M 5.4375 0 L 5.4375 -62.734375 L 18.3125 -62.734375 L 18.3125 -37.421875 L 45.515625 -37.421875 L 45.515625 -62.734375 L 58.390625 -62.734375 L 58.390625 0 L 45.515625 0 L 45.515625 -26.65625 L 18.3125 -26.65625 L 18.3125 0 Z M 5.4375 0"/></g></g></g><g fill-opacity="1" fill="#ffffff"><g transform="translate(314.236345, 84.285047)"><g><path d="M 5.4375 0 L 5.4375 -62.734375 L 18.3125 -62.734375 L 18.3125 -10.78125 L 45.71875 -10.78125 L 45.71875 0 Z M 5.4375 0"/></g></g></g><g fill-opacity="1" fill="#ffffff"><g transform="translate(354.437818, 84.285047)"><g><path d="M 24.921875 0 L 24.921875 -23.578125 L 1.6875 -62.734375 L 16.71875 -62.734375 L 27.328125 -43.3125 C 28.359375 -41.40625 29.304688 -39.507812 30.171875 -37.625 C 31.046875 -35.75 31.9375 -33.578125 32.84375 -31.109375 L 30.015625 -31.109375 C 30.890625 -33.609375 31.738281 -35.804688 32.5625 -37.703125 C 33.394531 -39.597656 34.316406 -41.46875 35.328125 -43.3125 L 45.59375 -62.734375 L 60.53125 -62.734375 L 37.671875 -23.578125 L 37.671875 0 Z M 24.921875 0"/></g></g></g></g></g></g><g clip-path="url(#5615ea0944)"><g clip-path="url(#c9b10abcbb)"><g transform="matrix(1, 0, 0, 1, 168, 90)"><g clip-path="url(#4deb8c0e55)"><g clip-path="url(#0556acf447)"><g clip-path="url(#e827dbc242)"><rect fill-opacity="1" height="1399.679988" y="-691.839997" fill="#2ecc71" width="2488.32" x="-1201.16"/></g></g></g></g></g></g></g></g></svg>