<svg xmlns="http://www.w3.org/2000/svg" xmlns:xlink="http://www.w3.org/1999/xlink" zoomAndPan="magnify" preserveAspectRatio="xMidYMid meet" version="1.0" viewBox="367.43 292.8 704.94 224.25"><defs><g/><clipPath id="562df75772"><path d="M 152.695312 66.453125 L 576.019531 66.453125 L 576.019531 159.171875 L 152.695312 159.171875 Z M 152.695312 66.453125 " clip-rule="nonzero"/></clipPath><clipPath id="8bd288f7c0"><path d="M 0.695312 0.453125 L 424.019531 0.453125 L 424.019531 93.171875 L 0.695312 93.171875 Z M 0.695312 0.453125 " clip-rule="nonzero"/></clipPath><clipPath id="e93ae21286"><rect x="0" width="425" y="0" height="94"/></clipPath><clipPath id="95f21bbe6f"><path d="M 0.425781 0.804688 L 259.121094 0.804688 L 259.121094 225 L 0.425781 225 Z M 0.425781 0.804688 " clip-rule="nonzero"/></clipPath><clipPath id="83916963fa"><path d="M 194.445312 0.804688 L 65.097656 0.804688 L 0.425781 112.8125 L 65.097656 224.820312 L 194.445312 224.820312 L 259.121094 112.8125 Z M 194.445312 0.804688 " clip-rule="nonzero"/></clipPath><clipPath id="44581c8a57"><path d="M 0.425781 0.804688 L 259.121094 0.804688 L 259.121094 224.960938 L 0.425781 224.960938 Z M 0.425781 0.804688 " clip-rule="nonzero"/></clipPath><clipPath id="3d3f5e77bb"><path d="M 194.445312 0.804688 L 65.097656 0.804688 L 0.425781 112.8125 L 65.097656 224.820312 L 194.445312 224.820312 L 259.121094 112.8125 Z M 194.445312 0.804688 " clip-rule="nonzero"/></clipPath><clipPath id="e1b76b9026"><rect x="0" width="260" y="0" height="225"/></clipPath><clipPath id="cbac6769e8"><path d="M 446.671875 0.804688 L 705.367188 0.804688 L 705.367188 225 L 446.671875 225 Z M 446.671875 0.804688 " clip-rule="nonzero"/></clipPath><clipPath id="84107c843f"><path d="M 640.695312 0.804688 L 511.347656 0.804688 L 446.671875 112.8125 L 511.347656 224.820312 L 640.695312 224.820312 L 705.367188 112.8125 Z M 640.695312 0.804688 " clip-rule="nonzero"/></clipPath><clipPath id="30ecb63451"><path d="M 0.671875 0.804688 L 259.367188 0.804688 L 259.367188 224.960938 L 0.671875 224.960938 Z M 0.671875 0.804688 " clip-rule="nonzero"/></clipPath><clipPath id="722fe8cf10"><path d="M 194.695312 0.804688 L 65.347656 0.804688 L 0.671875 112.8125 L 65.347656 224.820312 L 194.695312 224.820312 L 259.367188 112.8125 Z M 194.695312 0.804688 " clip-rule="nonzero"/></clipPath><clipPath id="e6ecac6289"><rect x="0" width="260" y="0" height="225"/></clipPath><clipPath id="74a4bf31a1"><rect x="0" width="136" y="0" height="204"/></clipPath><clipPath id="c09ade3b8f"><rect x="0" width="137" y="0" height="204"/></clipPath><clipPath id="24ece1fe51"><rect x="0" width="233" y="0" height="84"/></clipPath><clipPath id="b2760e4064"><rect x="0" width="706" y="0" height="226"/></clipPath></defs><g transform="matrix(1, 0, 0, 1, 367, 292)"><g clip-path="url(#b2760e4064)"><g clip-path="url(#562df75772)"><g transform="matrix(1, 0, 0, 1, 152, 66)"><g clip-path="url(#e93ae21286)"><g clip-path="url(#8bd288f7c0)"><path fill="#1a252f" d="M 0.695312 0.453125 L 424.089844 0.453125 L 424.089844 93.171875 L 0.695312 93.171875 Z M 0.695312 0.453125 " fill-opacity="1" fill-rule="nonzero"/></g></g></g></g><g clip-path="url(#95f21bbe6f)"><g clip-path="url(#83916963fa)"><g transform="matrix(1, 0, 0, 1, 0, 0.000000000000056843)"><g clip-path="url(#e1b76b9026)"><g clip-path="url(#44581c8a57)"><g clip-path="url(#3d3f5e77bb)"><path fill="#1a252f" d="M 0.425781 0.804688 L 259.121094 0.804688 L 259.121094 225.054688 L 0.425781 225.054688 Z M 0.425781 0.804688 " fill-opacity="1" fill-rule="nonzero"/></g></g></g></g></g></g><g clip-path="url(#cbac6769e8)"><g clip-path="url(#84107c843f)"><g transform="matrix(1, 0, 0, 1, 446, 0.000000000000056843)"><g clip-path="url(#e6ecac6289)"><g clip-path="url(#30ecb63451)"><g clip-path="url(#722fe8cf10)"><path fill="#1a252f" d="M 0.671875 0.804688 L 259.367188 0.804688 L 259.367188 225.054688 L 0.671875 225.054688 Z M 0.671875 0.804688 " fill-opacity="1" fill-rule="nonzero"/></g></g></g></g></g></g><g transform="matrix(1, 0, 0, 1, 58, 4)"><g clip-path="url(#74a4bf31a1)"><g fill="#2ecc71" fill-opacity="1"><g transform="translate(11.617149, 163.061016)"><g><path d="M 62.140625 1.671875 C 51.597656 1.671875 42.15625 -0.738281 33.8125 -5.5625 C 25.46875 -10.382812 18.894531 -17.320312 14.09375 -26.375 C 9.300781 -35.4375 6.90625 -46.351562 6.90625 -59.125 C 6.90625 -71.945312 9.316406 -82.898438 14.140625 -91.984375 C 18.960938 -101.066406 25.554688 -108.019531 33.921875 -112.84375 C 42.296875 -117.664062 51.703125 -120.078125 62.140625 -120.078125 C 68.921875 -120.078125 75.238281 -119.125 81.09375 -117.21875 C 86.945312 -115.3125 92.125 -112.53125 96.625 -108.875 C 101.132812 -105.21875 104.832031 -100.765625 107.71875 -95.515625 C 110.601562 -90.273438 112.5 -84.316406 113.40625 -77.640625 L 88.84375 -77.640625 C 88.257812 -80.921875 87.195312 -83.859375 85.65625 -86.453125 C 84.125 -89.054688 82.21875 -91.257812 79.9375 -93.0625 C 77.664062 -94.863281 75.070312 -96.226562 72.15625 -97.15625 C 69.238281 -98.082031 66.0625 -98.546875 62.625 -98.546875 C 56.375 -98.546875 50.898438 -96.976562 46.203125 -93.84375 C 41.515625 -90.71875 37.898438 -86.226562 35.359375 -80.375 C 32.816406 -74.519531 31.546875 -67.4375 31.546875 -59.125 C 31.546875 -50.695312 32.828125 -43.554688 35.390625 -37.703125 C 37.960938 -31.847656 41.582031 -27.410156 46.25 -24.390625 C 50.914062 -21.367188 56.375 -19.859375 62.625 -19.859375 C 66.007812 -19.859375 69.160156 -20.335938 72.078125 -21.296875 C 74.992188 -22.253906 77.601562 -23.617188 79.90625 -25.390625 C 82.207031 -27.160156 84.125 -29.34375 85.65625 -31.9375 C 87.195312 -34.539062 88.285156 -37.484375 88.921875 -40.765625 L 113.484375 -40.765625 C 112.742188 -34.992188 111.035156 -29.5625 108.359375 -24.46875 C 105.679688 -19.382812 102.128906 -14.867188 97.703125 -10.921875 C 93.273438 -6.972656 88.082031 -3.882812 82.125 -1.65625 C 76.164062 0.5625 69.503906 1.671875 62.140625 1.671875 Z M 62.140625 1.671875 "/></g></g></g></g></g><g transform="matrix(1, 0, 0, 1, 504, 4)"><g clip-path="url(#c09ade3b8f)"><g fill="#2ecc71" fill-opacity="1"><g transform="translate(13.13672, 163.061016)"><g><path d="M 47.046875 0 L 47.046875 -44.5 L 3.171875 -118.40625 L 31.546875 -118.40625 L 51.578125 -81.765625 C 53.535156 -78.171875 55.332031 -74.597656 56.96875 -71.046875 C 58.613281 -67.492188 60.285156 -63.390625 61.984375 -58.734375 L 56.65625 -58.734375 C 58.300781 -63.441406 59.90625 -67.582031 61.46875 -71.15625 C 63.03125 -74.738281 64.765625 -78.273438 66.671875 -81.765625 L 86.0625 -118.40625 L 114.28125 -118.40625 L 71.125 -44.5 L 71.125 0 Z M 47.046875 0 "/></g></g></g></g></g><g transform="matrix(1, 0, 0, 1, 245, 71)"><g clip-path="url(#24ece1fe51)"><g fill="#2ecc71" fill-opacity="1"><g transform="translate(0.049077, 66.713137)"><g><path d="M 25.421875 0.6875 C 21.140625 0.6875 17.289062 -0.296875 13.875 -2.265625 C 10.457031 -4.234375 7.757812 -7.066406 5.78125 -10.765625 C 3.8125 -14.460938 2.828125 -18.914062 2.828125 -24.125 C 2.828125 -29.351562 3.8125 -33.820312 5.78125 -37.53125 C 7.757812 -41.238281 10.457031 -44.078125 13.875 -46.046875 C 17.289062 -48.015625 21.140625 -49 25.421875 -49 C 29.703125 -49 33.546875 -48.015625 36.953125 -46.046875 C 40.359375 -44.078125 43.046875 -41.238281 45.015625 -37.53125 C 46.992188 -33.820312 47.984375 -29.351562 47.984375 -24.125 C 47.984375 -18.914062 46.992188 -14.457031 45.015625 -10.75 C 43.046875 -7.039062 40.359375 -4.207031 36.953125 -2.25 C 33.546875 -0.289062 29.703125 0.6875 25.421875 0.6875 Z M 25.421875 -8.109375 C 27.929688 -8.109375 30.125 -8.722656 32 -9.953125 C 33.882812 -11.179688 35.347656 -12.988281 36.390625 -15.375 C 37.441406 -17.769531 37.96875 -20.6875 37.96875 -24.125 C 37.96875 -27.582031 37.441406 -30.507812 36.390625 -32.90625 C 35.347656 -35.3125 33.882812 -37.128906 32 -38.359375 C 30.125 -39.585938 27.929688 -40.203125 25.421875 -40.203125 C 22.929688 -40.203125 20.738281 -39.582031 18.84375 -38.34375 C 16.957031 -37.101562 15.488281 -35.285156 14.4375 -32.890625 C 13.394531 -30.503906 12.875 -27.582031 12.875 -24.125 C 12.875 -20.6875 13.394531 -17.773438 14.4375 -15.390625 C 15.488281 -13.015625 16.957031 -11.207031 18.84375 -9.96875 C 20.738281 -8.726562 22.929688 -8.109375 25.421875 -8.109375 Z M 25.421875 -8.109375 "/></g></g></g><g fill="#2ecc71" fill-opacity="1"><g transform="translate(48.10109, 66.713137)"><g><path d="M 1.296875 0 L 17.9375 -48.3125 L 30.84375 -48.3125 L 47.796875 0 L 36.765625 0 L 29.046875 -23.34375 C 28.117188 -26.375 27.171875 -29.644531 26.203125 -33.15625 C 25.242188 -36.664062 24.226562 -40.53125 23.15625 -44.75 L 25.421875 -44.75 C 24.359375 -40.53125 23.375 -36.65625 22.46875 -33.125 C 21.5625 -29.59375 20.65625 -26.332031 19.75 -23.34375 L 12.1875 0 Z M 11.703125 -11.0625 L 11.703125 -18.875 L 37.390625 -18.875 L 37.390625 -11.0625 Z M 11.703125 -11.0625 "/></g></g></g><g fill="#2ecc71" fill-opacity="1"><g transform="translate(94.434643, 66.713137)"><g><path d="M 25.359375 0.6875 C 21.054688 0.6875 17.203125 -0.296875 13.796875 -2.265625 C 10.390625 -4.234375 7.707031 -7.066406 5.75 -10.765625 C 3.800781 -14.460938 2.828125 -18.914062 2.828125 -24.125 C 2.828125 -29.351562 3.804688 -33.820312 5.765625 -37.53125 C 7.734375 -41.238281 10.425781 -44.078125 13.84375 -46.046875 C 17.257812 -48.015625 21.097656 -49 25.359375 -49 C 28.117188 -49 30.691406 -48.609375 33.078125 -47.828125 C 35.472656 -47.046875 37.585938 -45.910156 39.421875 -44.421875 C 41.265625 -42.929688 42.773438 -41.113281 43.953125 -38.96875 C 45.128906 -36.832031 45.898438 -34.398438 46.265625 -31.671875 L 36.25 -31.671875 C 36.007812 -33.015625 35.578125 -34.210938 34.953125 -35.265625 C 34.328125 -36.328125 33.546875 -37.226562 32.609375 -37.96875 C 31.679688 -38.707031 30.625 -39.265625 29.4375 -39.640625 C 28.25 -40.015625 26.953125 -40.203125 25.546875 -40.203125 C 22.992188 -40.203125 20.757812 -39.5625 18.84375 -38.28125 C 16.9375 -37.007812 15.460938 -35.179688 14.421875 -32.796875 C 13.390625 -30.410156 12.875 -27.519531 12.875 -24.125 C 12.875 -20.6875 13.394531 -17.769531 14.4375 -15.375 C 15.488281 -12.988281 16.960938 -11.179688 18.859375 -9.953125 C 20.765625 -8.722656 22.992188 -8.109375 25.546875 -8.109375 C 26.929688 -8.109375 28.21875 -8.300781 29.40625 -8.6875 C 30.59375 -9.082031 31.65625 -9.640625 32.59375 -10.359375 C 33.539062 -11.085938 34.328125 -11.976562 34.953125 -13.03125 C 35.578125 -14.09375 36.019531 -15.296875 36.28125 -16.640625 L 46.296875 -16.640625 C 45.992188 -14.273438 45.296875 -12.054688 44.203125 -9.984375 C 43.117188 -7.910156 41.671875 -6.066406 39.859375 -4.453125 C 38.054688 -2.847656 35.9375 -1.585938 33.5 -0.671875 C 31.070312 0.234375 28.359375 0.6875 25.359375 0.6875 Z M 25.359375 0.6875 "/></g></g><g transform="translate(143.362098, 66.713137)"><g><path d="M 4.1875 0 L 4.1875 -48.3125 L 14.109375 -48.3125 L 14.109375 -28.828125 L 35.046875 -28.828125 L 35.046875 -48.3125 L 44.96875 -48.3125 L 44.96875 0 L 35.046875 0 L 35.046875 -20.53125 L 14.109375 -20.53125 L 14.109375 0 Z M 4.1875 0 "/></g></g><g transform="translate(192.516518, 66.713137)"><g><path d="M 4.1875 0 L 4.1875 -48.3125 L 14.109375 -48.3125 L 14.109375 -8.296875 L 35.21875 -8.296875 L 35.21875 0 Z M 4.1875 0 "/></g></g></g></g></g></g></g></svg>